<svg id="Camada_1" data-name="Camada 1" xmlns="http://www.w3.org/2000/svg" viewBox="0 0 300 69.43"><defs><style>.cls-1{fill:#1b2356;}.cls-2{fill:#d67f30;}.cls-3{fill:#fefefe;}</style></defs><title>logotipo-grupo-maltez</title><path class="cls-1" d="M140.93,44l-4.21,5.64c-2.28,3-4.57,6-6.82,9a1.36,1.36,0,0,1-1.24.6c-1.83,0-3.65,0-5.48,0s-2,0-1.77-2q.6-6.45,1.21-12.89c0-.4.25-.82-.1-1.29a2.41,2.41,0,0,0-1,1.28c-1.78,4.78-4,9.4-5.86,14.13a1.1,1.1,0,0,1-1.21.78c-2,0-3.91,0-5.86,0-1,0-1-.4-.7-1.14,3.46-8.12,7.07-16.19,10.29-24.41,1.09-2.8,2.45-3.9,5.4-3.52a45.42,45.42,0,0,0,6.6,0c1,0,1.33.39,1.22,1.36q-.78,7.24-1.52,14.48c0,.35-.32.81.17,1s.65-.28.87-.58l10.21-13.65c1.17-1.56,2.38-3.08,3.55-4.64a1.7,1.7,0,0,1,1.47-.77c2.91,0,5.81,0,8.72,0,1,0,1.23.39.81,1.35Q150.86,40,146,51.24c-.38.88-.13,1.16.75,1.1a.25.25,0,0,1,.12,0c2.93.58,4.77-.82,6.55-3,4.84-6.06,9.92-11.93,14.88-17.9a3,3,0,0,1,2.77-1.23c2.36.13,4.73.1,7.1,0,1.14,0,1.52.36,1.51,1.51-.06,8-.08,16-.11,24,0,.83,0,1.66.05,2.49,0,.66-.22,1-1,1-2.24-.06-4.48-.05-6.73,0-.79,0-1-.29-1-1,.06-1.61.06-3.24.15-4.85.06-1-.29-1.32-1.28-1.31-2.95,0-5.89,0-8.84,0a2,2,0,0,0-1.8.87c-1.39,1.81-2.82,3.59-4.21,5.4a2.12,2.12,0,0,1-1.85.92c-5.57,0-11.13,0-16.7,0-1.36,0-1.45-.23-.88-1.5,1.89-4.24,3.73-8.5,5.58-12.76a4.63,4.63,0,0,0,.17-.84Zm27.47.83h1.36c1.52,0,1.67-.19,1.72-1.73,0-1.33.11-2.65.17-4,0-.36.21-.84-.2-1s-.67.28-.89.56c-1.06,1.33-2.12,2.65-3.11,4-.43.6-1.58,1-1.14,1.84S167.77,44.63,168.4,44.78Z"/><path class="cls-1" d="M50.93,49.67c-.83.6-1,1.62-1.43,2.43-1.11,2-2.13,4-3.19,6.06a1.73,1.73,0,0,1-1.75,1c-4.65-.05-9.29,0-13.94,0-.65,0-1.17,0-1.16-.86,2.71-4.08,4.68-8.57,7-12.86,3.57-6.61,7-13.27,10.48-19.94.57-1.08,1.41-2.05,1.54-3.34.49-.16.63-.58.85-1,1.55-3.06,3.14-6.1,4.7-9.17.23-.46.59-.37.94-.37,4.85,0,9.7,0,14.55,0,1,0,.94.55.9,1.2-.48.1-.61.52-.8.88q-2.52,4.77-5,9.55Q58.4,35,52.22,46.76A9.28,9.28,0,0,0,50.93,49.67Z"/><path class="cls-1" d="M71.66,21.74c1.22-1,1.52-2.54,2.27-3.81,1-1.79,2-3.63,2.9-5.5a1.2,1.2,0,0,1,1.3-.8c4.69,0,9.38,0,14.07,0,1.18,0,1.37.35.79,1.44-1.29,2.46-2.62,4.9-3.91,7.36Q83.43,31.23,77.77,42C75,47.27,72.2,52.49,69.47,57.75a2.31,2.31,0,0,1-2.38,1.36c-4.4-.06-8.8,0-13.2,0-.67,0-1.27,0-1.39-.85.15-.13.36-.22.44-.39q3-5.52,5.9-11.07c3.47-6.6,7-13.19,10.38-19.81C70.1,25.28,71.26,23.68,71.66,21.74Z"/><path class="cls-1" d="M27.85,48.88c-1.25,1.16-1.62,2.85-2.47,4.25S23.74,56.19,23,57.75a1.93,1.93,0,0,1-2,1.16c-4.15-.06-8.3,0-12.45,0-2.49,0-2.54,0-1.37-2.28,3.5-6.72,7.05-13.42,10.58-20.13,4-7.55,8-15.09,11.9-22.66.77-1.48,1.59-2.32,3.54-2.22,4.18.22,8.38.07,12.57.05.68,0,1.26,0,1.27.91-.42.11-.52.51-.69.83Q42,21.5,37.71,29.65c-2.38,4.52-4.78,9-7.12,13.56A35.69,35.69,0,0,0,27.85,48.88Z"/><path class="cls-1" d="M219.42,30.21H232c.91,0,1.09.43.78,1.2,0,.08-.1.14-.12.22-.56,2.67-2.24,3.39-4.8,3a41.4,41.4,0,0,0-4.6-.06,1.8,1.8,0,0,0-1.91,1.25q-4.09,9.81-8.22,19.61a4.59,4.59,0,0,0-.44.89c-.46,2.74-2.24,3-4.65,3-6.06-.18-12.13,0-18.19-.1a8.18,8.18,0,0,1-6.3-2.46c-1.4-1.57-1.34-3.51-1.09-5.44a23.13,23.13,0,0,1,1.81-5.93c2.32-5.5,4.72-11,7-16.48a2.07,2.07,0,0,1,2.36-1.48c1.7.1,3.4,0,5.11,0,1.23,0,1.37.26.88,1.4-2.83,6.6-5.75,13.15-8.32,19.85-.9,2.35-.14,3.49,2.37,3.57,3.73.11,7.47,0,11.21.06a1.3,1.3,0,0,0,1.27-1Q209,44.65,211.79,38c.31-.73.6-1.46,1-2.16.47-.93.23-1.29-.8-1.28-2.2,0-4.4,0-6.6,0-1.32,0-1.4-.14-.92-1.34,1.21-3,1.21-3,4.4-3h10.59Z"/><path class="cls-1" d="M263.7,59.22c-4.11,0-8.22,0-12.33,0-1.11,0-1.19-.38-.81-1.24q1.09-2.45,2.13-4.91a3.9,3.9,0,0,1,1.25-1.53q7.57-5.87,15.17-11.71c1.75-1.34,3.51-2.65,5.27-4,.3-.23.67-.48.55-.89s-.63-.27-1-.27l-12.09,0c-1.17,0-1.31-.24-.84-1.34.62-1.45,1.25-2.9,1.84-4.36a2.32,2.32,0,0,1,2.5-1.68c7.81.08,15.62,0,23.43,0,1.55,0,1.71.24,1.08,1.63a18.94,18.94,0,0,0-1.09,2.65c-.76,2.81-3.09,4.21-5.16,5.83L266.47,51c-.25.19-.64.38-.51.77s.62.31,1,.31c3.9,0,7.81-.06,11.71-.07,1.27,0,1.44.27,1,1.38-.71,1.64-1.46,3.26-2.1,4.92a1.32,1.32,0,0,1-1.46,1C271.93,59.2,267.81,59.22,263.7,59.22Z"/><path class="cls-1" d="M248,39.56c2.32,0,4.65,0,7,0,1.19,0,1.35.28.88,1.32q-1,2.26-2,4.56a1.71,1.71,0,0,1-1.74,1.3c-4.85-.12-9.71.11-14.57-.13a1.41,1.41,0,0,0-1.68,1.27,8.71,8.71,0,0,1-.2.85c-.47,2.05.38,3.23,2.53,3.27,3.61.07,7.22.06,10.83.06,1.84,0,2,.16,1.27,1.8s-1.34,3-2,4.57a1.08,1.08,0,0,1-1.17.81c-3.91,0-7.82.16-11.71-.08-3.23-.21-6.37-1-8.05-4.31-1.38-2.67-.95-5.41-.11-8.11a34.67,34.67,0,0,1,6.91-12.82,18,18,0,0,1,11.22-6.12c4-.62,8-.22,11.94-.33.54,0,1.08,0,1.62,0,2.47,0,2.48,0,1.55,2.23-.51,1.22-1.05,2.43-1.54,3.67a1.66,1.66,0,0,1-1.8,1.18c-3.16,0-6.32.05-9.47,0s-5.54,1.68-7.54,4a.76.76,0,0,0-.21.91c.17.3.52.2.79.2H248Z"/><path class="cls-2" d="M87.5,59.18H77.3c-1.1,0-1.35-.37-.86-1.34l7.45-14.73c1-2,2-3.92,2.93-5.88.16-.32.19-.79.65-.82s.58.5.75.85q5.19,10.31,10.36,20.61c.5,1,.28,1.31-.88,1.31Z"/><path class="cls-2" d="M27.85,48.88a35.69,35.69,0,0,1,2.74-5.67c2.34-4.54,4.74-9,7.12-13.56Q42,21.51,46.33,13.37c.17-.32.27-.72.69-.83.38.09.35.41.38.68.32,2.65.65,5.3.72,8a1.38,1.38,0,0,0,.35,1c-.13,1.29-1,2.26-1.54,3.34C43.48,32.2,40,38.86,36.45,45.47c-2.31,4.29-4.28,8.78-7,12.86-.67-1.49-.47-3.12-.75-4.67-.23-1.29-.34-2.6-.47-3.9A1.48,1.48,0,0,0,27.85,48.88Z"/><path class="cls-2" d="M71.66,21.74c-.4,1.94-1.56,3.54-2.44,5.25C65.79,33.61,62.31,40.2,58.84,46.8q-2.93,5.55-5.9,11.07c-.08.17-.29.26-.44.39-.64-1.88-.57-3.88-.92-5.81-.16-.93.2-2-.65-2.78a9.28,9.28,0,0,1,1.29-2.91Q58.39,35,64.58,23.25q2.51-4.79,5-9.55c.19-.36.32-.78.8-.88.6,1.22.41,2.56.59,3.85a41.52,41.52,0,0,1,.29,4.18A1.49,1.49,0,0,0,71.66,21.74Z"/><path class="cls-2" d="M132.58,11.69a8.85,8.85,0,0,0,1.06,0c.9-.11,1.45.25,1.48,1.18a1.64,1.64,0,0,1-1.88,1.34,4.93,4.93,0,0,0-5.16,1.62,4.59,4.59,0,0,0-1.17,2.7,1.67,1.67,0,0,0,1.44,1.89,1.57,1.57,0,0,0,2.05-.91c.18-.41.36-.79-.19-1s-.76-.4-.6-.92a1.61,1.61,0,0,1,1.24-1.26,11.63,11.63,0,0,1,2.36,0c.67,0,.8.52.56,1.08-.54,1.26-1.09,2.51-1.66,3.75a2.09,2.09,0,0,1-.54.68c-1.36,1.19-5.67.88-6.87-.48a3.08,3.08,0,0,1-.43-3.17,8.89,8.89,0,0,1,4.82-5.42C130.25,12.16,131.33,11.27,132.58,11.69Z"/><path class="cls-2" d="M293.58,15.28A10.8,10.8,0,0,1,290,20.87a6.64,6.64,0,0,1-4.35,1.55c-2.48-.05-3.74-1.51-3.07-3.88a8.53,8.53,0,0,1,5-5.95c.64-.27,1.07-.81,1.8-.95,1.77-.33,2.79.83,3.88,1.81C293.71,13.83,293.39,14.49,293.58,15.28Zm-4.28-1.44c-.14,0-.31,0-.47.05-1.81.37-4,3.47-3.78,5.33a1.5,1.5,0,0,0,1.83,1.37c1.9-.29,4.22-3.56,3.88-5.48A1.4,1.4,0,0,0,289.3,13.84Z"/><path class="cls-2" d="M170.07,11.65c1.22.08,2,0,2.79.63,1.38,1.15,1.83,2.23.47,3.33-1.69,1.37-1.92,3-2,4.88a5.93,5.93,0,0,1-.21,1.1c-.18.87-.86.76-1.48.75s-.9-.5-.84-1.1a12.74,12.74,0,0,1,.24-1.35c.11-.61.09-1.2-.59-1.46s-1.11.14-1.38.72c-.35.75-.7,1.5-1,2.27a1.38,1.38,0,0,1-1.45.93c-.86,0-1.16-.36-.8-1.18,1-2.43,2.14-4.85,3.13-7.3C167.62,12.24,168.62,11.34,170.07,11.65Zm.19,2.17c-1.23-.09-1.29,1-1.72,1.77-.2.33-.34.77.11,1,.73.32,1.35-.12,2-.47a1.8,1.8,0,0,0,.52-.51c.27-.35.64-.7.34-1.21A1.28,1.28,0,0,0,170.26,13.82Z"/><path class="cls-2" d="M206.22,22.51c-2.1,0-3.07-1.18-2.48-3.22a30.14,30.14,0,0,1,3-7,1,1,0,0,1,1.46-.49c.56.29.52.92.25,1.52-.76,1.7-1.47,3.42-2.2,5.13-.29.68-.49,1.4.2,1.92s1.29.25,1.95-.16a5.3,5.3,0,0,0,1.89-2.55c.63-1.35,1.13-2.76,1.69-4.14a2.16,2.16,0,0,1,.31-.67c.5-.61,1-1.57,1.91-1s.38,1.34,0,2.08c-.82,1.72-1.46,3.53-2.38,5.19A6.11,6.11,0,0,1,206.22,22.51Z"/><path class="cls-2" d="M249.43,11.68a3.85,3.85,0,0,1,2.45.58c1.37,1.05,1.71,1.66.93,3.18A5.32,5.32,0,0,1,248,18.61a1.93,1.93,0,0,0-2.18,1.55,5.43,5.43,0,0,1-.78,1.67,1.32,1.32,0,0,1-1.78.39c-.67-.35-.28-.92-.08-1.41q1.51-3.52,3-7.07C246.89,12.09,247.47,11.7,249.43,11.68ZM249,13.84c-1,0-.91,1.38-1.47,2.16a.56.56,0,0,0,.21.86c.82.4,1.41-.19,2-.6a2.43,2.43,0,0,0,.65-.74C250.94,14.6,250.51,13.87,249,13.84Z"/><path class="cls-2" d="M220.35,27.48h12.44c.45,0,1.13-.2,1.13.58a1.05,1.05,0,0,1-1.09,1.12c-.87,0-1.74,0-2.61,0l-22.4-.06c-.5,0-1.33.31-1.32-.62s.63-1,1.4-1C212.05,27.5,216.2,27.49,220.35,27.48Z"/><path class="cls-2" d="M125.89,29.25c-1.41,0-2.82,0-4.23,0-.5,0-1.24.19-1.21-.64a1.19,1.19,0,0,1,1.18-1.22c.5,0,1,0,1.5,0h7.46c.63,0,1.25,0,1.24.84s-.44,1.1-1.21,1.09c-1.58,0-3.15,0-4.73,0Z"/><path class="cls-2" d="M174.93,29.3h-3.72c-.78,0-.86-.34-.41-.9a2.29,2.29,0,0,1,2-1.05c1.9.05,3.8,0,5.7,0,.66,0,1.28,0,1.27.92s-.51,1-1.23,1c-1.2,0-2.4,0-3.59,0Z"/><path class="cls-3" d="M168.4,44.78c-.63-.15-1.71.45-2.09-.28s.71-1.24,1.14-1.84c1-1.39,2.05-2.71,3.11-4,.22-.28.49-.72.89-.56s.21.65.2,1c-.06,1.33-.14,2.65-.17,4,0,1.54-.2,1.71-1.72,1.73Z"/><path class="cls-3" d="M289.3,13.84a1.4,1.4,0,0,1,1.46,1.27c.34,1.92-2,5.19-3.88,5.48a1.5,1.5,0,0,1-1.83-1.37c-.23-1.86,2-5,3.78-5.33C289,13.86,289.16,13.86,289.3,13.84Z"/><path class="cls-3" d="M170.26,13.82a1.28,1.28,0,0,1,1.21.54c.3.51-.07.86-.34,1.21a1.8,1.8,0,0,1-.52.51c-.61.35-1.23.79-2,.47-.45-.19-.31-.63-.11-1C169,14.85,169,13.73,170.26,13.82Z"/><path class="cls-3" d="M249,13.84c1.49,0,1.92.76,1.4,1.68a2.43,2.43,0,0,1-.65.74c-.6.41-1.19,1-2,.6a.56.56,0,0,1-.21-.86C248.11,15.22,248,13.87,249,13.84Z"/></svg>