<?xml version="1.0" encoding="iso-8859-1"?>
<!-- Generator: Adobe Illustrator 19.0.0, SVG Export Plug-In . SVG Version: 6.00 Build 0)  -->
<svg version="1.1" xmlns="http://www.w3.org/2000/svg" xmlns:xlink="http://www.w3.org/1999/xlink" x="0px" y="0px"
	 viewBox="0 0 566.929 145.36" style="enable-background:new 0 0 566.929 145.36;" xml:space="preserve">
<g id="couche">
</g>
<g id="offset">
</g>
<g id="CMYK">
	<g>
		<g>
			<rect x="12.515" y="107.976" style="fill:#C1D82F;" width="545.079" height="18.763"/>
		</g>
		<g>
			<path style="fill:#C1D82F;" d="M28.593,27.031c-11.586,7.426-18.327,20.353-18.477,35.467c-0.005,0.301-0.007,0.594-0.007,0.883
				c0,17.084,7.557,26.756,13.959,31.879c12.072,9.668,28.025,10.304,38.93,7.683l3.697-0.891V81.186l-6.529,2.441
				c-4.506,1.688-10.906,1.155-11.924-0.095l0.059-42.235c0-0.893,0.216-0.994,0.609-1.202c2.626-1.335,8.829-0.125,10.799,1.312
				l7.678,5.585V25.468l-2.855-1.276C52.932,18.988,39.494,20.049,28.593,27.031z"/>
			<path style="fill:#C1D82F;" d="M193.462,21.169h-13.682c0,0,0,15.48,0,25.511c-7.783-10.45-19.007-25.511-19.007-25.511h-25.451
				v82.997h18.219c0,0,0-14.527,0-23.93c7.293,10.033,17.397,23.93,17.397,23.93h27.36V21.169H193.462z"/>
			<path style="fill:#C1D82F;" d="M421.449,21.169h-13.664c0,0,0,15.48,0,25.511c-7.795-10.45-19.014-25.511-19.014-25.511h-25.559
				v82.997h18.418c0,0,0-14.527,0-23.93c7.289,10.029,17.393,23.93,17.393,23.93h27.26V21.169H421.449z"/>
			<path style="fill:#C1D82F;" d="M251.398,21.169h-50.47v82.997h39.466c0,0,0-26.045,0-33.098c4.67,0,15.835,0,15.835,0V51.534
				c0,0-11.459,0-16.227,0c0-3.477,0-5.622,0-9.097c4.768,0,16.227,0,16.227,0V21.169H251.398z"/>
			<polygon style="fill:#C1D82F;" points="288.873,21.169 254.532,21.169 254.532,104.166 293.697,104.166 293.697,21.169 			"/>
			<path style="fill:#C1D82F;" d="M58.606,62.875c0,23.005,17.172,41.722,38.275,41.722c21.101,0,38.271-18.717,38.271-41.722
				c0-22.995-17.171-41.706-38.271-41.706C75.778,21.169,58.606,39.88,58.606,62.875z"/>
			<path style="fill:#C1D82F;" d="M336.281,21.169h-20.066l-28.822,82.997h23.324c0,0,1.404-5.451,1.865-7.274
				c3.09,0,5.59,0,8.523,0c0.67,1.974,2.461,7.274,2.461,7.274h43.586l-27.389-82.997H336.281z"/>
			<path style="fill:#C1D82F;" d="M526.6,21.169h-19.854l-28.84,82.997h23.332c0,0,1.404-5.515,1.883-7.389c3.082,0,5.56,0,8.486,0
				c0.67,2.023,2.457,7.389,2.457,7.389h43.514l-27.49-82.997H526.6z"/>
			<path style="fill:#C1D82F;" d="M444.623,27.025c-11.592,7.432-18.334,20.353-18.488,35.473c0,0.295,0,0.58,0,0.872
				c0,16.44,7.051,27.229,16.404,33.575c-0.076,0.494-2.213,13.578-2.213,13.578h27.117c0,0,0.867-5.273,1.031-6.305
				c3.578-0.066,7.162-0.465,10.537-1.271l3.701-0.896V81.186l-6.523,2.441c-4.504,1.688-10.904,1.155-11.926-0.095l0.064-42.235
				c0-0.893,0.223-1,0.605-1.202c2.625-1.335,8.826-0.125,10.799,1.312l7.674,5.585V25.468l-2.852-1.276
				C468.959,18.988,455.527,20.049,444.623,27.025z"/>
		</g>
		<g>
			<path style="fill:#00539B;" d="M14.948,62.552c-0.489,32.003,27.537,40.356,46.915,35.692V88.15
				c-6.102,2.285-18.395,2.285-18.395-4.551V41.297c0-9.334,14.757-6.953,19.085-3.805v-8.891
				C41.993,19.379,15.243,33.265,14.948,62.552z"/>
			<polygon style="fill:#00539B;" points="184.612,61.254 158.348,25.997 140.157,25.997 140.157,99.335 148.715,99.335 
				148.715,65.375 173.399,99.335 193.462,99.335 193.462,25.997 184.612,25.997 			"/>
			<polygon style="fill:#00539B;" points="412.602,61.254 386.348,25.997 368.045,25.997 368.045,99.335 376.797,99.335 
				376.797,65.375 401.49,99.335 421.449,99.335 421.449,25.997 412.602,25.997 			"/>
			<polygon style="fill:#00539B;" points="205.76,99.335 235.559,99.335 235.559,66.238 251.398,66.238 251.398,56.367 
				235.169,56.367 235.169,37.609 251.398,37.609 251.398,25.997 205.76,25.997 			"/>
			<rect x="259.368" y="25.997" style="fill:#00539B;" width="29.505" height="73.338"/>
			<path style="fill:#00539B;" d="M96.881,25.997c-18.39,0-33.441,16.597-33.441,36.878c0,20.283,15.052,36.889,33.441,36.889
				c18.385,0,33.438-16.605,33.438-36.889C130.319,42.594,115.266,25.997,96.881,25.997z M101.795,85.98
				c0,2.496-1.963,4.561-4.521,4.561c-2.46,0-4.425-2.064-4.425-4.561V40.104c0-2.611,1.965-4.565,4.425-4.565
				c2.558,0,4.521,1.954,4.521,4.565V85.98z"/>
			<path style="fill:#00539B;" d="M319.66,25.997l-25.479,73.338h12.791l1.861-7.276h15.74l2.455,7.276h33.443l-24.191-73.338
				H319.66z M312.477,81.967l4.426-15.183l4.027,15.183H312.477z"/>
			<path style="fill:#00539B;" d="M526.6,25.997h-16.424l-25.475,73.338h12.783l1.871-7.386h15.738l2.457,7.386h33.344L526.6,25.997
				z M502.898,81.855l4.125-15.293l4.43,15.293H502.898z"/>
			<path style="fill:#00539B;" d="M430.978,62.552c-0.361,23.204,14.281,33.968,29.742,36.36h-13.6l-1.111,6.776h17.322l1.049-6.361
				c4.646,0.333,9.283-0.071,13.504-1.083V88.15c-6.094,2.285-18.385,2.285-18.385-4.551V41.297c0-9.334,14.748-6.953,19.076-3.805
				v-8.891C458.021,19.379,431.266,33.265,430.978,62.552z"/>
		</g>
	</g>
</g>
</svg>
