<svg version="1.1" id="Layer_1" xmlns="http://www.w3.org/2000/svg" xmlns:xlink="http://www.w3.org/1999/xlink" x="0px" y="0px"
	 width="100%" viewBox="0 0 500 201" enable-background="new 0 0 500 201" xml:space="preserve">
<path fill="#020202" opacity="1.000000" stroke="none" 
	d="
M380.000000,202.000000 
	C253.333359,202.000000 127.166710,202.000000 1.000051,202.000000 
	C1.000034,135.000031 1.000034,68.000069 1.000017,1.000078 
	C167.666611,1.000052 334.333221,1.000052 500.999878,1.000026 
	C500.999908,67.999924 500.999908,134.999847 500.999939,201.999878 
	C460.833344,202.000000 420.666656,202.000000 380.000000,202.000000 
M188.315216,149.187332 
	C188.222946,149.414337 188.130692,149.641357 187.126373,149.915848 
	C186.751266,148.732834 186.541229,147.457642 185.948593,146.396072 
	C185.478058,145.553223 184.539246,144.971817 183.808350,144.274338 
	C183.223358,145.102707 182.136810,145.926285 182.128876,146.760132 
	C182.016602,158.570236 182.014801,170.382065 182.132431,182.192047 
	C182.140030,182.953888 183.341736,183.703812 183.987961,184.459290 
	C184.760391,183.658981 186.174576,182.880112 186.202179,182.054901 
	C186.396622,176.238983 185.938873,170.382385 186.429489,164.601578 
	C186.782669,160.440186 188.278809,156.375793 189.834824,151.986603 
	C190.694550,151.055862 191.554276,150.125137 193.189011,149.003510 
	C201.226288,145.846909 206.949692,147.860641 208.812851,154.765610 
	C209.495773,157.296570 209.602753,160.031342 209.642624,162.678085 
	C209.749847,169.798645 209.679260,176.921890 209.679260,183.857666 
	C213.169006,185.154892 213.812378,183.887177 213.998566,181.013947 
	C214.678909,170.515457 211.356216,159.597778 217.746536,149.674561 
	C217.072128,149.184357 216.397705,148.694153 215.723282,148.203934 
	C214.963028,149.890503 214.202774,151.577057 213.331955,153.508881 
	C207.402985,142.336945 197.887009,140.376190 189.309448,147.999985 
	C189.012329,148.175110 188.884109,148.433899 188.315216,149.187332 
M304.744507,183.859772 
	C304.844910,175.223663 304.945312,166.587555 305.509247,157.333649 
	C306.173492,155.945236 306.837708,154.556824 308.074890,152.863144 
	C312.010590,150.660995 315.946320,148.458832 320.713165,145.791626 
	C320.255432,145.481537 318.737762,143.694672 317.810486,143.961288 
	C314.455017,144.926086 311.274536,146.530075 308.077850,148.001068 
	C306.874176,148.554947 305.806274,149.403915 304.836945,149.278305 
	C304.170776,147.520401 306.252716,144.033646 301.138977,144.889862 
	C301.016052,157.565536 300.881744,170.241150 300.821442,182.917130 
	C300.819489,183.323685 301.575714,183.733841 302.649841,184.400238 
	C303.102539,184.286011 303.555267,184.171783 304.744507,183.859772 
M257.466125,178.445831 
	C257.989075,178.596008 258.512054,178.746185 259.255310,179.549408 
	C263.029053,181.421631 266.645538,184.374313 270.607849,184.951111 
	C280.162262,186.341995 287.875061,180.661896 290.604004,171.464478 
	C293.616180,161.312485 289.688324,150.454651 281.319733,145.799774 
	C273.649506,141.533371 264.679993,143.299545 258.213806,150.483200 
	C257.708008,150.360352 257.202240,150.237488 256.892883,149.283829 
	C256.253082,147.529556 258.334076,144.048096 253.223846,144.963913 
	C253.117111,162.085602 253.004852,179.207260 252.944275,196.329102 
	C252.943085,196.663315 253.549118,196.999680 254.503372,197.723999 
	C255.351761,196.692368 256.894806,195.684479 256.930969,194.625107 
	C257.109436,189.401947 256.888580,184.165161 257.466125,178.445831 
M174.605606,10.588951 
	C171.661545,10.588951 168.717499,10.588951 165.770233,10.588951 
	C165.770233,31.402248 165.770233,51.604599 165.770233,72.009720 
	C172.767761,72.009720 179.425018,72.148140 186.073959,71.972534 
	C193.374710,71.779694 200.785599,71.991074 207.936264,70.776657 
	C218.298340,69.016861 223.513718,60.946850 221.553329,51.709026 
	C220.349716,46.037346 216.682068,42.533478 211.329758,40.115143 
	C212.677139,38.888351 213.680984,38.071445 214.573044,37.146713 
	C221.400742,30.068930 220.032532,18.863033 211.398163,14.174994 
	C208.145340,12.408870 204.228714,11.268292 200.537521,11.027901 
	C192.243881,10.487773 183.901947,10.689343 174.605606,10.588951 
M293.151123,14.832018 
	C293.151123,33.767136 293.151123,52.702251 293.151123,71.807320 
	C306.111786,71.807320 318.571930,71.960411 331.023346,71.698250 
	C334.084930,71.633797 337.261749,70.557846 340.136078,69.352074 
	C347.567535,66.234612 350.612610,59.876228 349.296539,51.957813 
	C348.297150,45.944649 344.087280,42.731533 340.149292,40.461365 
	C342.252869,36.893074 344.923737,33.903130 345.886383,30.438549 
	C348.694550,20.332092 341.705444,11.908058 329.469330,11.126214 
	C318.349945,10.415727 307.163605,10.792284 296.009552,10.557024 
	C293.379608,10.501552 292.897095,11.760216 293.151123,14.832018 
M54.498753,184.320587 
	C70.099304,183.673279 81.807716,173.362900 81.254974,160.283279 
	C76.815308,160.283279 72.324608,160.013580 67.895798,160.419342 
	C66.183762,160.576172 64.079124,161.892578 63.078606,163.326370 
	C60.329514,167.265945 57.020618,169.498154 52.141869,168.475662 
	C47.487251,167.500122 44.420376,163.502106 44.085266,158.296661 
	C43.728626,152.756882 46.262367,148.022568 50.477608,146.352524 
	C54.747116,144.660980 59.404972,146.122986 62.463940,150.040756 
	C63.340820,151.163818 64.330399,153.014633 65.351425,153.072784 
	C70.713448,153.378281 76.102127,153.215714 83.090034,153.215714 
	C80.305138,147.862579 78.721039,143.412674 75.989304,139.840363 
	C68.901360,130.571457 55.430672,127.528130 43.272358,131.854248 
	C32.297920,135.759125 25.998510,145.004959 25.992224,157.216812 
	C25.983971,173.246780 36.348846,183.437698 54.498753,184.320587 
M247.285522,23.772675 
	C242.233383,30.584892 237.507919,37.675632 232.017960,44.114544 
	C228.150696,48.650246 227.496323,53.330761 228.511246,59.167030 
	C239.342209,59.167030 250.079651,59.167030 261.296173,59.167030 
	C261.296173,63.666714 261.296173,67.733315 261.296173,71.678680 
	C266.197723,71.678680 270.605225,71.678680 275.290649,71.678680 
	C275.290649,67.408279 275.290649,63.464729 275.290649,59.081627 
	C278.639526,59.081627 281.708801,59.081627 284.889465,59.081627 
	C284.889465,55.046211 284.889465,51.463718 284.889465,47.639877 
	C281.607544,47.492161 278.531128,47.353691 274.976379,47.193695 
	C274.976379,43.326744 274.976379,39.758144 274.976379,36.378494 
	C270.255280,36.378494 266.043030,36.378494 261.486969,36.378494 
	C261.486969,40.185398 261.486969,43.625233 261.486969,46.964478 
	C256.156006,46.964478 251.196838,46.964478 245.740952,46.964478 
	C250.422531,40.502895 254.698273,34.591663 258.984619,28.688133 
	C263.194031,22.890623 267.414246,17.100939 271.574005,11.384377 
	C261.313446,8.300700 254.232483,11.373569 249.800186,20.403704 
	C249.295624,21.431671 248.437637,22.286167 247.285522,23.772675 
M109.072281,184.292938 
	C110.723297,184.093109 112.411453,184.049637 114.019241,183.667786 
	C123.609680,181.390137 129.435944,173.705170 129.022659,164.000214 
	C128.639526,155.003250 122.738243,148.987015 112.750839,147.416473 
	C111.531540,147.224716 110.309258,147.051941 108.629234,146.802094 
	C111.694626,141.737167 114.487816,137.122009 117.728500,131.767441 
	C111.959122,131.767441 107.169334,131.650894 102.393402,131.856323 
	C101.313606,131.902756 99.863640,132.817123 99.295654,133.760437 
	C95.434425,140.173111 91.192139,146.444138 88.143517,153.241104 
	C80.379639,170.550766 89.269943,183.999817 109.072281,184.292938 
M165.387100,184.449341 
	C167.551132,184.442291 169.728516,184.568832 171.871857,184.354691 
	C172.607971,184.281143 173.259018,183.356155 173.948929,182.820145 
	C173.238113,182.126129 172.559906,180.876236 171.810959,180.832306 
	C168.160782,180.618240 164.491714,180.723541 160.829330,180.721451 
	C155.757538,180.718567 150.685745,180.720718 145.724548,180.720718 
	C145.724548,173.061615 145.724548,166.334839 145.724548,159.080841 
	C154.011917,159.080841 161.922699,159.080841 169.898132,159.080841 
	C169.898132,157.886108 169.946289,156.668625 169.891312,156.663940 
	C161.809250,155.976639 153.719696,155.377228 145.731613,154.781494 
	C145.731613,148.268570 145.731613,141.881317 145.731613,135.130051 
	C148.587784,135.130051 151.063461,135.131516 153.539139,135.129745 
	C159.199280,135.125702 164.861343,135.190460 170.517410,135.036301 
	C171.329865,135.014145 172.113449,133.933289 172.910400,133.342392 
	C172.291870,132.730698 171.679276,131.592972 171.053925,131.585938 
	C161.134918,131.474136 151.214294,131.507294 141.016907,131.507294 
	C141.016907,140.860077 141.016907,149.503738 141.016907,158.147415 
	C141.016907,166.754166 141.016907,175.360931 141.016907,183.750061 
	C141.840637,184.088852 142.143112,184.320328 142.447372,184.322693 
	C149.769913,184.379745 157.092621,184.412277 165.387100,184.449341 
M362.353088,158.269409 
	C359.463837,148.237946 352.353119,142.947586 342.631653,143.596695 
	C333.338074,144.217224 326.062836,150.983902 324.389893,160.563232 
	C322.604553,170.786407 327.216553,180.144791 335.804657,183.725235 
	C344.843597,187.493637 355.667603,184.762909 360.543152,176.692398 
	C358.794098,176.658066 357.045532,176.914505 355.772339,177.831207 
	C349.648468,182.240509 343.075958,182.835663 336.447723,179.708069 
	C330.853546,177.068405 328.580902,172.041855 328.330902,165.202942 
	C340.048401,165.202942 351.376587,165.202942 363.011810,165.202942 
	C362.824829,162.674377 362.691437,160.870697 362.353088,158.269409 
M406.596924,179.656479 
	C409.123047,181.409454 411.430542,184.051956 414.219055,184.737289 
	C420.797974,186.354202 427.023956,184.724136 430.780609,181.104980 
	C434.101288,182.789230 436.398071,184.046936 438.794922,185.070190 
	C439.155914,185.224289 440.188568,184.399094 440.522125,183.807800 
	C440.732880,183.434280 440.314301,182.183456 440.021820,182.126373 
	C435.392151,181.222687 437.069794,177.575562 436.984802,174.920349 
	C436.798340,169.093918 436.988495,163.256577 436.910248,157.425217 
	C436.820221,150.717773 433.672211,146.159012 428.072998,144.379395 
	C420.805969,142.069702 411.562347,144.034973 408.307220,148.880280 
	C407.464661,150.134491 407.615143,152.055847 407.309448,153.670761 
	C408.637848,152.870163 410.218231,152.309814 411.250610,151.226959 
	C415.503448,146.766159 420.653625,146.798462 426.049103,148.000275 
	C430.420959,148.974060 432.181671,152.149719 432.757111,156.300140 
	C433.141663,159.073669 432.528748,160.648331 429.284729,160.887329 
	C424.973785,161.204956 420.685394,161.937057 416.412750,162.644684 
	C406.619110,164.266739 403.480164,169.347504 406.596924,179.656479 
M372.013031,161.422180 
	C375.473053,162.956177 378.885376,164.612656 382.408783,165.983795 
	C385.028656,167.003311 388.094086,167.172653 390.397095,168.618790 
	C392.254974,169.785416 394.438660,172.348663 394.352905,174.193527 
	C394.253479,176.332932 392.294891,179.185211 390.333344,180.290359 
	C384.210205,183.740250 376.336365,181.435074 372.217896,175.844666 
	C371.473480,174.834244 369.942688,174.403152 367.727631,173.078033 
	C369.589905,180.812027 373.147369,184.267700 379.444397,184.949081 
	C386.188538,185.678848 393.045166,185.753876 397.445984,179.239395 
	C400.453369,174.787582 398.822723,168.594925 393.943573,165.841125 
	C391.385620,164.397385 388.395416,163.687943 385.557465,162.781357 
	C383.026093,161.972733 379.999176,161.944672 377.994415,160.475662 
	C376.006073,159.018707 373.933136,156.196671 373.924774,153.965683 
	C373.917450,152.024399 376.350647,149.293976 378.386963,148.277130 
	C383.643707,145.652176 388.963989,147.220856 393.334686,151.523468 
	C394.204224,152.379440 395.735809,152.562851 396.962128,153.056396 
	C394.122375,144.700790 387.453827,141.979965 378.531799,144.095612 
	C370.019287,146.114166 367.056335,153.184509 372.013031,161.422180 
M472.115387,173.694504 
	C471.329681,175.609528 471.051025,178.083389 469.667053,179.339050 
	C464.715149,183.832108 453.976196,181.914139 450.131866,176.332275 
	C449.329895,175.167831 447.813568,174.495377 446.626434,173.596207 
	C447.098541,180.764404 450.889221,184.387527 457.427032,184.985931 
	C464.159760,185.602188 470.905396,185.628998 475.179901,178.903687 
	C475.685669,178.107880 475.883698,177.047455 475.997711,176.082901 
	C476.703217,170.114548 474.470428,166.381088 468.461395,164.280319 
	C464.555359,162.914749 460.419922,162.219971 456.452484,161.010666 
	C453.136688,160.000000 450.973145,157.810104 451.152985,154.081482 
	C451.334747,150.313202 453.839783,148.606705 457.171753,147.765488 
	C462.361481,146.455215 466.991791,147.065445 470.812469,151.305527 
	C471.657074,152.242828 473.201904,152.549179 474.424347,153.146042 
	C471.643158,144.181412 462.015717,141.078079 453.426331,145.042206 
	C449.478180,146.864319 447.121307,149.850174 447.019073,154.328583 
	C446.916290,158.832397 449.056976,162.098984 453.141693,163.692368 
	C456.831635,165.131760 460.934540,165.586731 464.504669,167.235245 
	C467.287506,168.520172 469.531891,170.971191 472.115387,173.694504 
M237.215485,173.460327 
	C237.215530,176.126251 237.284027,178.794373 237.198563,181.457550 
	C237.087677,184.911926 238.856552,184.768326 241.473007,183.893036 
	C241.473007,175.874054 241.478149,168.064529 241.467453,160.255005 
	C241.465866,159.090012 241.453690,157.918762 241.338425,156.761154 
	C240.176514,145.090729 228.839569,139.499603 219.417999,145.983871 
	C218.646973,146.514526 218.211273,147.532379 217.619766,148.323853 
	C219.742035,148.951721 221.222946,148.586761 222.680817,148.145660 
	C231.140320,145.586029 236.529663,149.156784 237.082565,157.984650 
	C237.384094,162.798935 237.187500,167.644424 237.215485,173.460327 
M233.219177,87.964920 
	C233.219177,94.322601 233.219177,100.680290 233.219177,107.037971 
	C233.780609,107.055756 234.342041,107.073532 234.903473,107.091309 
	C235.156464,105.138657 235.409439,103.186012 235.710052,100.865845 
	C238.016403,100.865845 240.181274,101.090752 242.280807,100.816154 
	C245.955856,100.335503 248.496765,98.275383 248.621429,94.385231 
	C248.744629,90.540390 246.556076,88.081154 242.781372,87.581970 
	C239.859467,87.195572 236.859528,87.399399 233.219177,87.964920 
M321.153961,103.193802 
	C322.104004,104.576401 323.054077,105.959000 324.004120,107.341591 
	C324.407867,107.051216 324.811584,106.760834 325.215332,106.470451 
	C322.140228,99.920631 319.065125,93.370811 315.990021,86.820992 
	C315.450287,86.861008 314.910522,86.901031 314.370758,86.941048 
	C311.383026,93.474632 308.395294,100.008224 305.407532,106.541809 
	C306.024719,106.846992 306.641876,107.152176 307.259064,107.457359 
	C309.904663,101.805756 312.550293,96.154160 315.389221,90.089653 
	C316.904510,93.601250 318.182709,96.563377 319.485687,99.582993 
	C318.159637,99.912384 317.226593,100.144150 316.293518,100.375916 
	C316.310883,100.649467 316.328247,100.923027 316.345612,101.196579 
	C317.851624,101.620987 319.357635,102.045395 321.153961,103.193802 
M173.264801,99.833488 
	C172.339783,95.658218 173.162735,91.671944 177.348007,90.318314 
	C180.500748,89.298622 184.247849,90.116638 187.551773,90.116638 
	C183.372528,85.966156 176.970276,86.059868 173.032837,90.525719 
	C169.331284,94.724075 170.020172,101.644234 174.486053,105.123665 
	C178.782867,108.471375 184.760849,107.861023 188.055145,103.111671 
	C182.313187,105.375702 177.066940,106.845192 173.264801,99.833488 
M205.316483,100.657608 
	C206.632904,97.374413 207.949326,94.091217 209.265747,90.808014 
	C209.651672,90.800827 210.037582,90.793633 210.423492,90.786438 
	C211.525436,94.059280 212.627396,97.332115 213.729355,100.604950 
	C213.458588,100.652985 213.187820,100.701019 212.917053,100.749054 
	C214.840088,102.907417 216.763123,105.065788 218.686157,107.224152 
	C219.017242,106.965584 219.348328,106.707008 219.679413,106.448433 
	C216.626938,99.910637 213.574463,93.372833 210.521973,86.835030 
	C209.987961,86.848503 209.453949,86.861977 208.919937,86.875458 
	C205.906036,93.435913 202.892136,99.996368 199.878235,106.556831 
	C200.302689,106.822136 200.727142,107.087440 201.151581,107.352745 
	C202.456680,105.363098 203.761780,103.373451 205.316483,100.657608 
M344.507172,105.039558 
	C341.786499,105.478752 340.729309,104.507820 340.876892,101.593521 
	C341.118134,96.830490 340.942108,92.046333 340.942108,87.271080 
	C340.357483,87.283844 339.772827,87.296600 339.188202,87.309364 
	C339.188202,93.819740 339.188202,100.330116 339.188202,106.624565 
	C343.472534,106.624565 347.612213,106.624565 351.751892,106.624565 
	C351.782410,106.226753 351.812927,105.828941 351.843475,105.431122 
	C349.709930,105.300621 347.576416,105.170113 344.507172,105.039558 
M288.098022,101.384666 
	C288.098022,97.454102 288.098022,93.523544 288.098022,89.490753 
	C290.696198,89.277916 292.845306,89.101868 294.994415,88.925812 
	C294.964264,88.532532 294.934143,88.139244 294.903992,87.745956 
	C289.650787,87.745956 284.397583,87.745956 279.144379,87.745956 
	C279.106720,88.087280 279.069092,88.428596 279.031464,88.769920 
	C281.306854,89.065239 283.582275,89.360558 286.548096,89.745491 
	C286.548096,95.654900 286.548096,101.350693 286.548096,107.046478 
	C287.064728,107.018501 287.581390,106.990524 288.098022,106.962540 
	C288.098022,105.425308 288.098022,103.888077 288.098022,101.384666 
M265.858185,100.375328 
	C265.858185,95.953857 265.858185,91.532387 265.858185,87.110916 
	C265.173889,87.139023 264.489594,87.167122 263.805298,87.195221 
	C263.805298,93.817375 263.805298,100.439537 263.805298,107.061691 
	C264.329712,107.095551 264.854095,107.129410 265.378510,107.163261 
	C265.538391,105.217720 265.698273,103.272171 265.858185,100.375328 
z"/>
<path fill="#F8F8F8" opacity="1.000000" stroke="none" 
	d="
M175.092636,10.588971 
	C183.901947,10.689343 192.243881,10.487773 200.537521,11.027901 
	C204.228714,11.268292 208.145340,12.408870 211.398163,14.174994 
	C220.032532,18.863033 221.400742,30.068930 214.573044,37.146713 
	C213.680984,38.071445 212.677139,38.888351 211.329758,40.115143 
	C216.682068,42.533478 220.349716,46.037346 221.553329,51.709026 
	C223.513718,60.946850 218.298340,69.016861 207.936264,70.776657 
	C200.785599,71.991074 193.374710,71.779694 186.073959,71.972534 
	C179.425018,72.148140 172.767761,72.009720 165.770233,72.009720 
	C165.770233,51.604599 165.770233,31.402248 165.770233,10.588951 
	C168.717499,10.588951 171.661545,10.588951 175.092636,10.588971 
M192.438293,61.162796 
	C195.421906,61.021255 198.462738,61.192024 201.374481,60.658340 
	C204.935028,60.005737 207.369675,57.913113 207.355347,53.848686 
	C207.341461,49.904163 205.305344,47.297211 201.565399,46.954845 
	C194.396301,46.298573 187.177338,46.187099 180.150024,45.857601 
	C180.150024,51.577873 180.150024,56.304943 180.150024,61.162888 
	C184.163116,61.162888 187.812042,61.162888 192.438293,61.162796 
M186.546265,21.292833 
	C184.432358,21.292833 182.318466,21.292833 180.059845,21.292833 
	C180.059845,26.342512 180.059845,30.885584 180.059845,36.141483 
	C186.615768,35.762581 192.882309,35.671028 199.072754,34.937397 
	C202.579773,34.521782 204.410522,31.907475 204.294220,28.180820 
	C204.182678,24.606804 202.097351,22.553631 198.881760,22.058449 
	C195.137070,21.481789 191.297531,21.520931 186.546265,21.292833 
z"/>
<path fill="#FBFBFB" opacity="1.000000" stroke="none" 
	d="
M293.151184,14.368574 
	C292.897095,11.760216 293.379608,10.501552 296.009552,10.557024 
	C307.163605,10.792284 318.349945,10.415727 329.469330,11.126214 
	C341.705444,11.908058 348.694550,20.332092 345.886383,30.438549 
	C344.923737,33.903130 342.252869,36.893074 340.149292,40.461365 
	C344.087280,42.731533 348.297150,45.944649 349.296539,51.957813 
	C350.612610,59.876228 347.567535,66.234612 340.136078,69.352074 
	C337.261749,70.557846 334.084930,71.633797 331.023346,71.698250 
	C318.571930,71.960411 306.111786,71.807320 293.151123,71.807320 
	C293.151123,52.702251 293.151123,33.767136 293.151184,14.368574 
M307.402283,50.735519 
	C307.402283,54.136227 307.402283,57.536930 307.402283,61.089420 
	C314.243164,61.089420 320.371338,61.253700 326.486450,61.041168 
	C332.102142,60.845985 334.962799,58.349888 335.122253,54.110783 
	C335.290375,49.641762 332.939148,46.987297 327.223602,46.449478 
	C321.797058,45.938847 316.290527,46.341690 310.836670,46.033291 
	C307.771149,45.859940 307.063782,47.204357 307.402283,50.735519 
M312.720276,21.269402 
	C311.114563,21.269402 309.508881,21.269402 307.657898,21.269402 
	C307.657898,26.317614 307.657898,30.857677 307.657898,36.076900 
	C314.011108,35.777275 320.089386,35.702293 326.120056,35.127747 
	C329.806610,34.776524 332.113861,32.472977 332.106720,28.477432 
	C332.099518,24.441223 329.674133,22.350330 326.019379,21.917538 
	C321.929413,21.433207 317.778534,21.463217 312.720276,21.269402 
z"/>
<path fill="#F5F5F5" opacity="1.000000" stroke="none" 
	d="
M54.027687,184.319580 
	C36.348846,183.437698 25.983971,173.246780 25.992224,157.216812 
	C25.998510,145.004959 32.297920,135.759125 43.272358,131.854248 
	C55.430672,127.528130 68.901360,130.571457 75.989304,139.840363 
	C78.721039,143.412674 80.305138,147.862579 83.090034,153.215714 
	C76.102127,153.215714 70.713448,153.378281 65.351425,153.072784 
	C64.330399,153.014633 63.340820,151.163818 62.463940,150.040756 
	C59.404972,146.122986 54.747116,144.660980 50.477608,146.352524 
	C46.262367,148.022568 43.728626,152.756882 44.085266,158.296661 
	C44.420376,163.502106 47.487251,167.500122 52.141869,168.475662 
	C57.020618,169.498154 60.329514,167.265945 63.078606,163.326370 
	C64.079124,161.892578 66.183762,160.576172 67.895798,160.419342 
	C72.324608,160.013580 76.815308,160.283279 81.254974,160.283279 
	C81.807716,173.362900 70.099304,183.673279 54.027687,184.319580 
z"/>
<path fill="#FAFAFA" opacity="1.000000" stroke="none" 
	d="
M247.514526,23.496887 
	C248.437637,22.286167 249.295624,21.431671 249.800186,20.403704 
	C254.232483,11.373569 261.313446,8.300700 271.574005,11.384377 
	C267.414246,17.100939 263.194031,22.890623 258.984619,28.688133 
	C254.698273,34.591663 250.422531,40.502895 245.740952,46.964478 
	C251.196838,46.964478 256.156006,46.964478 261.486969,46.964478 
	C261.486969,43.625233 261.486969,40.185398 261.486969,36.378494 
	C266.043030,36.378494 270.255280,36.378494 274.976379,36.378494 
	C274.976379,39.758144 274.976379,43.326744 274.976379,47.193695 
	C278.531128,47.353691 281.607544,47.492161 284.889465,47.639877 
	C284.889465,51.463718 284.889465,55.046211 284.889465,59.081627 
	C281.708801,59.081627 278.639526,59.081627 275.290649,59.081627 
	C275.290649,63.464729 275.290649,67.408279 275.290649,71.678680 
	C270.605225,71.678680 266.197723,71.678680 261.296173,71.678680 
	C261.296173,67.733315 261.296173,63.666714 261.296173,59.167030 
	C250.079651,59.167030 239.342209,59.167030 228.511246,59.167030 
	C227.496323,53.330761 228.150696,48.650246 232.017960,44.114544 
	C237.507919,37.675632 242.233383,30.584892 247.514526,23.496887 
z"/>
<path fill="#F3F3F3" opacity="1.000000" stroke="none" 
	d="
M108.657791,184.308380 
	C89.269943,183.999817 80.379639,170.550766 88.143517,153.241104 
	C91.192139,146.444138 95.434425,140.173111 99.295654,133.760437 
	C99.863640,132.817123 101.313606,131.902756 102.393402,131.856323 
	C107.169334,131.650894 111.959122,131.767441 117.728500,131.767441 
	C114.487816,137.122009 111.694626,141.737167 108.629234,146.802094 
	C110.309258,147.051941 111.531540,147.224716 112.750839,147.416473 
	C122.738243,148.987015 128.639526,155.003250 129.022659,164.000214 
	C129.435944,173.705170 123.609680,181.390137 114.019241,183.667786 
	C112.411453,184.049637 110.723297,184.093109 108.657791,184.308380 
M111.762970,159.716156 
	C108.501152,157.348541 104.790367,157.071030 102.541618,160.305237 
	C101.158905,162.293884 100.710258,166.411377 101.889938,168.280792 
	C103.039764,170.102921 106.926414,171.282135 109.379791,170.962921 
	C113.932877,170.370529 115.005272,165.539368 111.762970,159.716156 
z"/>
<path fill="#E2E2E2" opacity="1.000000" stroke="none" 
	d="
M164.901215,184.449295 
	C157.092621,184.412277 149.769913,184.379745 142.447372,184.322693 
	C142.143112,184.320328 141.840637,184.088852 141.016907,183.750061 
	C141.016907,175.360931 141.016907,166.754166 141.016907,158.147415 
	C141.016907,149.503738 141.016907,140.860077 141.016907,131.507294 
	C151.214294,131.507294 161.134918,131.474136 171.053925,131.585938 
	C171.679276,131.592972 172.291870,132.730698 172.910400,133.342392 
	C172.113449,133.933289 171.329865,135.014145 170.517410,135.036301 
	C164.861343,135.190460 159.199280,135.125702 153.539139,135.129745 
	C151.063461,135.131516 148.587784,135.130051 145.731613,135.130051 
	C145.731613,141.881317 145.731613,148.268570 145.731613,154.781494 
	C153.719696,155.377228 161.809250,155.976639 169.891312,156.663940 
	C169.946289,156.668625 169.898132,157.886108 169.898132,159.080841 
	C161.922699,159.080841 154.011917,159.080841 145.724548,159.080841 
	C145.724548,166.334839 145.724548,173.061615 145.724548,180.720718 
	C150.685745,180.720718 155.757538,180.718567 160.829330,180.721451 
	C164.491714,180.723541 168.160782,180.618240 171.810959,180.832306 
	C172.559906,180.876236 173.238113,182.126129 173.948929,182.820145 
	C173.259018,183.356155 172.607971,184.281143 171.871857,184.354691 
	C169.728516,184.568832 167.551132,184.442291 164.901215,184.449295 
z"/>
<path fill="#DDDDDD" opacity="1.000000" stroke="none" 
	d="
M362.455566,158.668213 
	C362.691437,160.870697 362.824829,162.674377 363.011810,165.202942 
	C351.376587,165.202942 340.048401,165.202942 328.330902,165.202942 
	C328.580902,172.041855 330.853546,177.068405 336.447723,179.708069 
	C343.075958,182.835663 349.648468,182.240509 355.772339,177.831207 
	C357.045532,176.914505 358.794098,176.658066 360.543152,176.692398 
	C355.667603,184.762909 344.843597,187.493637 335.804657,183.725235 
	C327.216553,180.144791 322.604553,170.786407 324.389893,160.563232 
	C326.062836,150.983902 333.338074,144.217224 342.631653,143.596695 
	C352.353119,142.947586 359.463837,148.237946 362.455566,158.668213 
M353.216034,150.154739 
	C347.587128,146.385895 341.743896,145.988800 335.919434,149.485672 
	C331.465576,152.159653 328.674500,156.016342 328.524994,161.507919 
	C338.788696,161.507919 348.602142,161.507919 360.284729,161.507919 
	C357.680206,157.133438 355.743439,153.880524 353.216034,150.154739 
z"/>
<path fill="#DFDFDF" opacity="1.000000" stroke="none" 
	d="
M406.401215,179.322540 
	C403.480164,169.347504 406.619110,164.266739 416.412750,162.644684 
	C420.685394,161.937057 424.973785,161.204956 429.284729,160.887329 
	C432.528748,160.648331 433.141663,159.073669 432.757111,156.300140 
	C432.181671,152.149719 430.420959,148.974060 426.049103,148.000275 
	C420.653625,146.798462 415.503448,146.766159 411.250610,151.226959 
	C410.218231,152.309814 408.637848,152.870163 407.309448,153.670746 
	C407.615143,152.055847 407.464661,150.134491 408.307220,148.880280 
	C411.562347,144.034973 420.805969,142.069702 428.072998,144.379395 
	C433.672211,146.159012 436.820221,150.717773 436.910248,157.425217 
	C436.988495,163.256577 436.798340,169.093918 436.984802,174.920349 
	C437.069794,177.575562 435.392151,181.222687 440.021820,182.126373 
	C440.314301,182.183456 440.732880,183.434280 440.522125,183.807800 
	C440.188568,184.399094 439.155914,185.224289 438.794922,185.070190 
	C436.398071,184.046936 434.101288,182.789230 430.780609,181.104980 
	C427.023956,184.724136 420.797974,186.354202 414.219055,184.737289 
	C411.430542,184.051956 409.123047,181.409454 406.401215,179.322540 
M417.699127,181.446594 
	C430.292633,181.219955 435.267334,175.254166 431.935333,164.017929 
	C426.911743,164.741058 421.826019,165.363510 416.782867,166.232803 
	C412.534912,166.965012 409.176025,168.844589 409.226715,173.890427 
	C409.276703,178.865738 412.325195,180.871826 417.699127,181.446594 
z"/>
<path fill="#DCDCDC" opacity="1.000000" stroke="none" 
	d="
M371.755707,161.150604 
	C367.056335,153.184509 370.019287,146.114166 378.531799,144.095612 
	C387.453827,141.979965 394.122375,144.700790 396.962128,153.056396 
	C395.735809,152.562851 394.204224,152.379440 393.334686,151.523468 
	C388.963989,147.220856 383.643707,145.652176 378.386963,148.277130 
	C376.350647,149.293976 373.917450,152.024399 373.924774,153.965683 
	C373.933136,156.196671 376.006073,159.018707 377.994415,160.475662 
	C379.999176,161.944672 383.026093,161.972733 385.557465,162.781357 
	C388.395416,163.687943 391.385620,164.397385 393.943573,165.841125 
	C398.822723,168.594925 400.453369,174.787582 397.445984,179.239395 
	C393.045166,185.753876 386.188538,185.678848 379.444397,184.949081 
	C373.147369,184.267700 369.589905,180.812027 367.727631,173.078033 
	C369.942688,174.403152 371.473480,174.834244 372.217896,175.844666 
	C376.336365,181.435074 384.210205,183.740250 390.333344,180.290359 
	C392.294891,179.185211 394.253479,176.332932 394.352905,174.193527 
	C394.438660,172.348663 392.254974,169.785416 390.397095,168.618790 
	C388.094086,167.172653 385.028656,167.003311 382.408783,165.983795 
	C378.885376,164.612656 375.473053,162.956177 371.755707,161.150604 
z"/>
<path fill="#E0E0E0" opacity="1.000000" stroke="none" 
	d="
M472.065491,173.299255 
	C469.531891,170.971191 467.287506,168.520172 464.504669,167.235245 
	C460.934540,165.586731 456.831635,165.131760 453.141693,163.692368 
	C449.056976,162.098984 446.916290,158.832397 447.019073,154.328583 
	C447.121307,149.850174 449.478180,146.864319 453.426331,145.042206 
	C462.015717,141.078079 471.643158,144.181412 474.424347,153.146042 
	C473.201904,152.549179 471.657074,152.242828 470.812469,151.305527 
	C466.991791,147.065445 462.361481,146.455215 457.171753,147.765488 
	C453.839783,148.606705 451.334747,150.313202 451.152985,154.081482 
	C450.973145,157.810104 453.136688,160.000000 456.452484,161.010666 
	C460.419922,162.219971 464.555359,162.914749 468.461395,164.280319 
	C474.470428,166.381088 476.703217,170.114548 475.997711,176.082901 
	C475.883698,177.047455 475.685669,178.107880 475.179901,178.903687 
	C470.905396,185.628998 464.159760,185.602188 457.427032,184.985931 
	C450.889221,184.387527 447.098541,180.764404 446.626434,173.596207 
	C447.813568,174.495377 449.329895,175.167831 450.131866,176.332275 
	C453.976196,181.914139 464.715149,183.832108 469.667053,179.339050 
	C471.051025,178.083389 471.329681,175.609528 472.065491,173.299255 
z"/>
<path fill="#DADADA" opacity="1.000000" stroke="none" 
	d="
M259.010223,150.192703 
	C264.679993,143.299545 273.649506,141.533371 281.319733,145.799774 
	C289.688324,150.454651 293.616180,161.312485 290.604004,171.464478 
	C287.875061,180.661896 280.162262,186.341995 270.607849,184.951111 
	C266.645538,184.374313 263.029053,181.421631 259.141113,178.863281 
	C259.010895,177.458527 258.994873,176.739914 259.081848,175.927994 
	C259.184906,175.834702 259.391418,175.648590 259.684296,175.819977 
	C267.006561,182.758408 276.076294,183.474228 282.158325,177.741959 
	C288.727203,171.550797 289.006714,158.398010 282.707642,151.893021 
	C276.564850,145.549423 267.180878,145.898026 259.640991,152.556183 
	C259.284271,152.246674 259.141541,152.122925 259.003784,151.698059 
	C259.009277,150.995529 259.009766,150.594116 259.010223,150.192703 
z"/>
<path fill="#DDDDDD" opacity="1.000000" stroke="none" 
	d="
M189.755875,147.908615 
	C197.887009,140.376190 207.402985,142.336945 213.331955,153.508881 
	C214.202774,151.577057 214.963028,149.890503 215.723282,148.203934 
	C216.397705,148.694153 217.072128,149.184357 217.746536,149.674561 
	C211.356216,159.597778 214.678909,170.515457 213.998566,181.013947 
	C213.812378,183.887177 213.169006,185.154892 209.679260,183.857666 
	C209.679260,176.921890 209.749847,169.798645 209.642624,162.678085 
	C209.602753,160.031342 209.495773,157.296570 208.812851,154.765610 
	C206.949692,147.860641 201.226288,145.846909 192.457550,148.962479 
	C191.069351,148.583847 190.412613,148.246231 189.755875,147.908615 
z"/>
<path fill="#DADADA" opacity="1.000000" stroke="none" 
	d="
M237.215515,172.968079 
	C237.187500,167.644424 237.384094,162.798935 237.082565,157.984650 
	C236.529663,149.156784 231.140320,145.586029 222.680817,148.145660 
	C221.222946,148.586761 219.742035,148.951721 217.619766,148.323853 
	C218.211273,147.532379 218.646973,146.514526 219.417999,145.983871 
	C228.839569,139.499603 240.176514,145.090729 241.338425,156.761154 
	C241.453690,157.918762 241.465866,159.090012 241.467453,160.255005 
	C241.478149,168.064529 241.473007,175.874054 241.473007,183.893036 
	C238.856552,184.768326 237.087677,184.911926 237.198563,181.457550 
	C237.284027,178.794373 237.215530,176.126251 237.215515,172.968079 
z"/>
<path fill="#D3D3D3" opacity="1.000000" stroke="none" 
	d="
M189.265106,152.268143 
	C188.278809,156.375793 186.782669,160.440186 186.429489,164.601578 
	C185.938873,170.382385 186.396622,176.238983 186.202179,182.054901 
	C186.174576,182.880112 184.760391,183.658981 183.987961,184.459290 
	C183.341736,183.703812 182.140030,182.953888 182.132431,182.192047 
	C182.014801,170.382065 182.016602,158.570236 182.128876,146.760132 
	C182.136810,145.926285 183.223358,145.102707 183.808350,144.274338 
	C184.539246,144.971817 185.478058,145.553223 185.948593,146.396072 
	C186.541229,147.457642 186.751266,148.732834 187.594635,150.133606 
	C188.342896,150.856049 188.622894,151.360718 188.992035,151.967346 
	C189.081192,152.069290 189.265106,152.268143 189.265106,152.268143 
z"/>
<path fill="#DADADA" opacity="1.000000" stroke="none" 
	d="
M253.960281,144.664185 
	C258.334076,144.048096 256.253082,147.529556 256.592224,149.914307 
	C255.670074,153.866150 257.519714,152.587784 258.998779,151.999161 
	C259.141541,152.122925 259.284271,152.246674 259.499847,152.897415 
	C255.410950,160.798996 255.940964,168.211884 259.391418,175.648590 
	C259.391418,175.648590 259.184906,175.834702 258.739777,175.931061 
	C257.799316,176.996002 257.303986,177.964584 256.808655,178.933182 
	C256.888580,184.165161 257.109436,189.401947 256.930969,194.625107 
	C256.894806,195.684479 255.351761,196.692368 254.222443,197.039703 
	C253.947769,179.124985 253.954025,161.894592 253.960281,144.664185 
z"/>
<path fill="#DDDDDD" opacity="1.000000" stroke="none" 
	d="
M233.556732,87.652878 
	C236.859528,87.399399 239.859467,87.195572 242.781372,87.581970 
	C246.556076,88.081154 248.744629,90.540390 248.621429,94.385231 
	C248.496765,98.275383 245.955856,100.335503 242.280807,100.816154 
	C240.181274,101.090752 238.016403,100.865845 235.710052,100.865845 
	C235.409439,103.186012 235.156464,105.138657 234.903473,107.091309 
	C234.342041,107.073532 233.780609,107.055756 233.219177,107.037971 
	C233.219177,100.680290 233.219177,94.322601 233.556732,87.652878 
M235.299164,91.890175 
	C235.299164,94.169495 235.299164,96.448814 235.299164,100.607620 
	C239.640152,98.644722 242.939285,97.398155 245.853180,95.545631 
	C246.246933,95.295296 245.176758,90.847740 243.963425,90.351631 
	C241.293182,89.259811 237.862289,87.167145 235.299164,91.890175 
z"/>
<path fill="#DCDCDC" opacity="1.000000" stroke="none" 
	d="
M321.008789,102.831802 
	C319.357635,102.045395 317.851624,101.620987 316.345612,101.196579 
	C316.328247,100.923027 316.310883,100.649467 316.293518,100.375916 
	C317.226593,100.144150 318.159637,99.912384 319.485687,99.582993 
	C318.182709,96.563377 316.904510,93.601250 315.389221,90.089653 
	C312.550293,96.154160 309.904663,101.805756 307.259064,107.457359 
	C306.641876,107.152176 306.024719,106.846992 305.407532,106.541809 
	C308.395294,100.008224 311.383026,93.474632 314.370758,86.941048 
	C314.910522,86.901031 315.450287,86.861008 315.990021,86.820992 
	C319.065125,93.370811 322.140228,99.920631 325.215332,106.470451 
	C324.811584,106.760834 324.407867,107.051216 324.004120,107.341591 
	C323.054077,105.959000 322.104004,104.576401 321.008789,102.831802 
z"/>
<path fill="#DCDCDC" opacity="1.000000" stroke="none" 
	d="
M173.447906,100.185455 
	C177.066940,106.845192 182.313187,105.375702 188.055145,103.111671 
	C184.760849,107.861023 178.782867,108.471375 174.486053,105.123665 
	C170.020172,101.644234 169.331284,94.724075 173.032837,90.525719 
	C176.970276,86.059868 183.372528,85.966156 187.551773,90.116638 
	C184.247849,90.116638 180.500748,89.298622 177.348007,90.318314 
	C173.162735,91.671944 172.339783,95.658218 173.447906,100.185455 
z"/>
<path fill="#DDDDDD" opacity="1.000000" stroke="none" 
	d="
M205.191681,101.020706 
	C203.761780,103.373451 202.456680,105.363098 201.151581,107.352745 
	C200.727142,107.087440 200.302689,106.822136 199.878235,106.556831 
	C202.892136,99.996368 205.906036,93.435913 208.919937,86.875458 
	C209.453949,86.861977 209.987961,86.848503 210.521973,86.835030 
	C213.574463,93.372833 216.626938,99.910637 219.679413,106.448433 
	C219.348328,106.707008 219.017242,106.965584 218.686157,107.224152 
	C216.763123,105.065788 214.840088,102.907417 212.917053,100.749054 
	C213.187820,100.701019 213.458588,100.652985 213.729355,100.604950 
	C212.627396,97.332115 211.525436,94.059280 210.423492,90.786438 
	C210.037582,90.793633 209.651672,90.800827 209.265747,90.808014 
	C207.949326,94.091217 206.632904,97.374413 205.191681,101.020706 
z"/>
<path fill="#D3D3D3" opacity="1.000000" stroke="none" 
	d="
M253.592072,144.814056 
	C253.954025,161.894592 253.947769,179.124985 253.906677,196.845215 
	C253.549118,196.999680 252.943085,196.663315 252.944275,196.329102 
	C253.004852,179.207260 253.117111,162.085602 253.592072,144.814056 
z"/>
<path fill="#DFDFDF" opacity="1.000000" stroke="none" 
	d="
M301.893280,144.599243 
	C306.252716,144.033646 304.170776,147.520401 304.535828,149.963043 
	C305.323822,151.487991 306.412872,152.328201 307.501953,153.168411 
	C306.837708,154.556824 306.173492,155.945236 304.992676,157.867920 
	C304.320038,166.953979 304.164001,175.505768 304.007965,184.057556 
	C303.555267,184.171783 303.102539,184.286011 302.305725,183.793167 
	C301.938812,170.323807 301.916046,157.461533 301.893280,144.599243 
z"/>
<path fill="#E2E2E2" opacity="1.000000" stroke="none" 
	d="
M344.975037,105.039581 
	C347.576416,105.170113 349.709930,105.300621 351.843475,105.431122 
	C351.812927,105.828941 351.782410,106.226753 351.751892,106.624565 
	C347.612213,106.624565 343.472534,106.624565 339.188202,106.624565 
	C339.188202,100.330116 339.188202,93.819740 339.188202,87.309364 
	C339.772827,87.296600 340.357483,87.283844 340.942108,87.271080 
	C340.942108,92.046333 341.118134,96.830490 340.876892,101.593521 
	C340.729309,104.507820 341.786499,105.478752 344.975037,105.039581 
z"/>
<path fill="#E9E9E9" opacity="1.000000" stroke="none" 
	d="
M288.098022,101.867752 
	C288.098022,103.888077 288.098022,105.425308 288.098022,106.962540 
	C287.581390,106.990524 287.064728,107.018501 286.548096,107.046478 
	C286.548096,101.350693 286.548096,95.654900 286.548096,89.745491 
	C283.582275,89.360558 281.306854,89.065239 279.031464,88.769920 
	C279.069092,88.428596 279.106720,88.087280 279.144379,87.745956 
	C284.397583,87.745956 289.650787,87.745956 294.903992,87.745956 
	C294.934143,88.139244 294.964264,88.532532 294.994415,88.925812 
	C292.845306,89.101868 290.696198,89.277916 288.098022,89.490753 
	C288.098022,93.523544 288.098022,97.454102 288.098022,101.867752 
z"/>
<path fill="#CDCDCD" opacity="1.000000" stroke="none" 
	d="
M301.516113,144.744553 
	C301.916046,157.461533 301.938812,170.323807 301.970032,183.664215 
	C301.575714,183.733841 300.819489,183.323685 300.821442,182.917130 
	C300.881744,170.241150 301.016052,157.565536 301.516113,144.744553 
z"/>
<path fill="#CDCDCD" opacity="1.000000" stroke="none" 
	d="
M307.788422,153.015778 
	C306.412872,152.328201 305.323822,151.487991 304.455627,150.383057 
	C305.806274,149.403915 306.874176,148.554947 308.077850,148.001068 
	C311.274536,146.530075 314.455017,144.926086 317.810486,143.961288 
	C318.737762,143.694672 320.255432,145.481537 320.713165,145.791626 
	C315.946320,148.458832 312.010590,150.660995 307.788422,153.015778 
z"/>
<path fill="#BABABA" opacity="1.000000" stroke="none" 
	d="
M265.858154,100.850975 
	C265.698273,103.272171 265.538391,105.217720 265.378510,107.163261 
	C264.854095,107.129410 264.329712,107.095551 263.805298,107.061691 
	C263.805298,100.439537 263.805298,93.817375 263.805298,87.195221 
	C264.489594,87.167122 265.173889,87.139023 265.858185,87.110916 
	C265.858185,91.532387 265.858185,95.953857 265.858154,100.850975 
z"/>
<path fill="#CDCDCD" opacity="1.000000" stroke="none" 
	d="
M304.376221,183.958679 
	C304.164001,175.505768 304.320038,166.953979 304.760925,158.176819 
	C304.945312,166.587555 304.844910,175.223663 304.376221,183.958679 
z"/>
<path fill="#D3D3D3" opacity="1.000000" stroke="none" 
	d="
M257.137390,178.689514 
	C257.303986,177.964584 257.799316,176.996002 258.636719,176.024353 
	C258.994873,176.739914 259.010895,177.458527 259.030975,178.536774 
	C258.512054,178.746185 257.989075,178.596008 257.137390,178.689514 
z"/>
<path fill="#D3D3D3" opacity="1.000000" stroke="none" 
	d="
M189.532654,147.954300 
	C190.412613,148.246231 191.069351,148.583847 192.070053,149.057922 
	C191.554276,150.125137 190.694550,151.055862 189.549957,152.127380 
	C189.265106,152.268143 189.081192,152.069290 189.030975,151.584229 
	C188.962112,150.324905 188.943451,149.550644 188.924805,148.776382 
	C188.884109,148.433899 189.012329,148.175110 189.532654,147.954300 
z"/>
<path fill="#D3D3D3" opacity="1.000000" stroke="none" 
	d="
M259.003784,151.698059 
	C257.519714,152.587784 255.670074,153.866150 256.494019,150.329712 
	C257.202240,150.237488 257.708008,150.360352 258.612000,150.337952 
	C259.009766,150.594116 259.009277,150.995529 259.003784,151.698059 
z"/>
<path fill="#DDDDDD" opacity="1.000000" stroke="none" 
	d="
M188.620010,148.981857 
	C188.943451,149.550644 188.962112,150.324905 188.941833,151.482285 
	C188.622894,151.360718 188.342896,150.856049 188.050659,150.109863 
	C188.130692,149.641357 188.222946,149.414337 188.620010,148.981857 
z"/>
<path fill="#040404" opacity="1.000000" stroke="none" 
	d="
M191.949631,61.162842 
	C187.812042,61.162888 184.163116,61.162888 180.150024,61.162888 
	C180.150024,56.304943 180.150024,51.577873 180.150024,45.857601 
	C187.177338,46.187099 194.396301,46.298573 201.565399,46.954845 
	C205.305344,47.297211 207.341461,49.904163 207.355347,53.848686 
	C207.369675,57.913113 204.935028,60.005737 201.374481,60.658340 
	C198.462738,61.192024 195.421906,61.021255 191.949631,61.162842 
z"/>
<path fill="#0A0A0A" opacity="1.000000" stroke="none" 
	d="
M187.022705,21.292837 
	C191.297531,21.520931 195.137070,21.481789 198.881760,22.058449 
	C202.097351,22.553631 204.182678,24.606804 204.294220,28.180820 
	C204.410522,31.907475 202.579773,34.521782 199.072754,34.937397 
	C192.882309,35.671028 186.615768,35.762581 180.059845,36.141483 
	C180.059845,30.885584 180.059845,26.342512 180.059845,21.292833 
	C182.318466,21.292833 184.432358,21.292833 187.022705,21.292837 
z"/>
<path fill="#080808" opacity="1.000000" stroke="none" 
	d="
M307.402344,50.273483 
	C307.063782,47.204357 307.771149,45.859940 310.836670,46.033291 
	C316.290527,46.341690 321.797058,45.938847 327.223602,46.449478 
	C332.939148,46.987297 335.290375,49.641762 335.122253,54.110783 
	C334.962799,58.349888 332.102142,60.845985 326.486450,61.041168 
	C320.371338,61.253700 314.243164,61.089420 307.402283,61.089420 
	C307.402283,57.536930 307.402283,54.136227 307.402344,50.273483 
z"/>
<path fill="#0E0E0E" opacity="1.000000" stroke="none" 
	d="
M313.187195,21.269405 
	C317.778534,21.463217 321.929413,21.433207 326.019379,21.917538 
	C329.674133,22.350330 332.099518,24.441223 332.106720,28.477432 
	C332.113861,32.472977 329.806610,34.776524 326.120056,35.127747 
	C320.089386,35.702293 314.011108,35.777275 307.657898,36.076900 
	C307.657898,30.857677 307.657898,26.317614 307.657898,21.269402 
	C309.508881,21.269402 311.114563,21.269402 313.187195,21.269405 
z"/>
<path fill="#101010" opacity="1.000000" stroke="none" 
	d="
M112.038162,159.992218 
	C115.005272,165.539368 113.932877,170.370529 109.379791,170.962921 
	C106.926414,171.282135 103.039764,170.102921 101.889938,168.280792 
	C100.710258,166.411377 101.158905,162.293884 102.541618,160.305237 
	C104.790367,157.071030 108.501152,157.348541 112.038162,159.992218 
z"/>
<path fill="#0C0C0C" opacity="1.000000" stroke="none" 
	d="
M353.511353,150.391174 
	C355.743439,153.880524 357.680206,157.133438 360.284729,161.507919 
	C348.602142,161.507919 338.788696,161.507919 328.524994,161.507919 
	C328.674500,156.016342 331.465576,152.159653 335.919434,149.485672 
	C341.743896,145.988800 347.587128,146.385895 353.511353,150.391174 
z"/>
<path fill="#0C0C0C" opacity="1.000000" stroke="none" 
	d="
M417.261627,181.406128 
	C412.325195,180.871826 409.276703,178.865738 409.226715,173.890427 
	C409.176025,168.844589 412.534912,166.965012 416.782867,166.232803 
	C421.826019,165.363510 426.911743,164.741058 431.935333,164.017929 
	C435.267334,175.254166 430.292633,181.219955 417.261627,181.406128 
z"/>
<path fill="#060606" opacity="1.000000" stroke="none" 
	d="
M259.684296,175.819977 
	C255.940964,168.211884 255.410950,160.798996 259.713867,153.083160 
	C267.180878,145.898026 276.564850,145.549423 282.707642,151.893021 
	C289.006714,158.398010 288.727203,171.550797 282.158325,177.741959 
	C276.076294,183.474228 267.006561,182.758408 259.684296,175.819977 
z"/>
<path fill="#101010" opacity="1.000000" stroke="none" 
	d="
M235.306183,91.454376 
	C237.862289,87.167145 241.293182,89.259811 243.963425,90.351631 
	C245.176758,90.847740 246.246933,95.295296 245.853180,95.545631 
	C242.939285,97.398155 239.640152,98.644722 235.299164,100.607620 
	C235.299164,96.448814 235.299164,94.169495 235.306183,91.454376 
z"/>
</svg>