<svg version="1.1" id="Layer_1" xmlns="http://www.w3.org/2000/svg" xmlns:xlink="http://www.w3.org/1999/xlink" x="0px" y="0px"
	 width="100%" viewBox="0 0 700 495" enable-background="new 0 0 700 495" xml:space="preserve">
<path fill="#000000" opacity="1.000000" stroke="none" 
	d="
M381.000000,496.000000 
	C254.000000,496.000000 127.500000,496.000000 1.000000,496.000000 
	C1.000000,331.000000 1.000000,166.000000 1.000000,1.000000 
	C234.333328,1.000000 467.666656,1.000000 701.000000,1.000000 
	C701.000000,166.000000 701.000000,331.000000 701.000000,496.000000 
	C594.500000,496.000000 488.000000,496.000000 381.000000,496.000000 
M276.225037,176.217972 
	C272.119751,179.690323 275.252441,180.779617 278.742676,182.326035 
	C280.699585,189.341095 284.721344,194.881592 290.626221,199.115158 
	C303.653229,208.454941 323.527802,207.325241 334.785736,194.555862 
	C348.133789,179.415726 345.290405,155.936646 329.277435,144.956635 
	C312.705414,133.593277 291.068451,138.374374 280.987457,156.075623 
	C277.459442,162.270447 276.773529,169.057205 276.225037,176.217972 
M115.284119,339.350983 
	C113.285980,341.738556 113.934097,343.244415 117.002731,344.742798 
	C121.874352,363.976685 136.026077,372.100800 156.560165,372.028473 
	C187.529480,371.919373 218.499481,372.005371 249.469193,371.987579 
	C251.547913,371.986389 253.626526,371.809875 255.533249,371.722717 
	C255.533249,362.134399 255.533249,353.244629 255.533249,344.000183 
	C253.251923,344.000183 251.436340,344.000183 249.620743,344.000183 
	C229.973297,344.000061 210.325836,344.008514 190.678391,343.996399 
	C179.927582,343.989746 177.008331,341.106354 177.000458,330.560059 
	C176.997925,327.150940 177.000061,323.741821 177.000061,320.500244 
	C155.909058,320.500244 135.759644,320.500244 114.833237,320.500244 
	C114.833237,324.108734 114.833237,327.555756 114.214035,331.233917 
	C110.031853,334.613739 112.975708,336.279419 115.902359,338.485382 
	C115.879349,338.658539 115.856339,338.831726 115.284119,339.350983 
M362.229340,334.217834 
	C358.364502,337.365387 361.118256,338.676086 363.962738,340.785431 
	C368.310822,363.368652 382.664124,372.030731 404.392914,372.008148 
	C435.390320,371.975983 466.387756,372.005280 497.385193,371.987976 
	C499.472382,371.986816 501.559479,371.814941 503.552368,371.726624 
	C503.552368,362.185150 503.552368,353.290649 503.552368,344.000061 
	C501.127686,344.000061 499.148834,344.000122 497.169952,344.000061 
	C477.171600,343.999268 457.173126,344.043762 437.174988,343.977448 
	C428.029938,343.947113 425.016479,340.938660 425.000916,332.238861 
	C424.995819,329.405762 425.000000,326.572662 425.000000,323.739563 
	C424.999969,316.976562 425.000000,310.213593 425.000000,302.837677 
	C451.716125,302.837677 477.613678,302.837677 503.608337,302.837677 
	C503.608337,293.300415 503.608337,284.407562 503.608337,274.880493 
	C477.327209,274.880493 451.430359,274.880493 425.000092,274.880493 
	C425.000092,266.787964 424.994019,259.325012 425.001648,251.862045 
	C425.010651,243.047592 428.062408,240.016571 437.050659,240.007141 
	C457.215637,239.985992 477.380646,240.000076 497.545624,239.999832 
	C499.490295,239.999817 501.434937,239.999832 503.672394,239.999832 
	C503.672394,230.432678 503.672394,221.540909 503.672394,212.324768 
	C475.424316,212.324768 447.502380,212.324768 419.546570,212.324768 
	C409.140594,237.714920 391.132294,256.616669 368.991913,271.870117 
	C364.935699,274.664673 362.740662,277.200531 362.849030,282.517822 
	C363.198547,299.672241 362.888885,316.840118 362.229340,334.217834 
M523.159668,247.152008 
	C520.093750,248.934540 520.437988,250.907440 522.946716,253.926743 
	C522.908936,279.952087 522.871155,305.977417 522.229309,332.217773 
	C518.364380,335.365448 521.118225,336.676117 523.950806,338.810638 
	C527.317444,361.208771 540.201660,371.741425 562.528442,371.931549 
	C594.185669,372.201202 625.846924,371.999908 657.506470,371.999847 
	C659.454407,371.999847 661.402283,371.999847 663.510620,371.999847 
	C663.510620,362.338074 663.510620,353.328522 663.510620,344.000061 
	C661.032776,344.000061 659.043579,344.000092 657.054321,344.000000 
	C637.058838,343.999207 617.063232,344.030975 597.067871,343.979950 
	C590.077942,343.962097 585.514404,341.278107 585.271851,335.917816 
	C584.785278,325.167633 585.127319,314.379944 585.127319,302.980591 
	C611.572266,302.980591 637.467163,302.980591 663.504028,302.980591 
	C663.504028,293.328888 663.504028,284.321808 663.504028,274.684631 
	C637.119812,274.684631 611.226685,274.684631 585.000183,274.684631 
	C585.000183,266.894470 584.990601,259.741089 585.002502,252.587753 
	C585.018372,243.042282 587.986694,240.011703 597.387451,240.004837 
	C617.549561,239.990112 637.711731,240.007507 657.873840,239.987442 
	C659.795654,239.985535 661.717407,239.812271 663.557983,239.722519 
	C663.557983,230.194855 663.557983,221.301331 663.557983,212.000092 
	C661.140930,212.000092 659.163879,212.000092 657.186768,212.000092 
	C625.193970,212.000107 593.201172,211.989807 561.208374,212.003784 
	C539.788513,212.013138 525.371948,225.528763 523.159668,247.152008 
M115.182358,246.106842 
	C111.476433,247.857117 111.616470,249.835327 114.946678,252.927643 
	C114.946678,270.835693 114.946678,288.743774 114.946678,306.582581 
	C88.741943,306.582581 63.424549,306.582581 38.107151,306.582581 
	C61.234653,313.922760 85.084351,316.214294 108.932610,316.782166 
	C145.604752,317.655365 182.331024,317.708710 218.855148,313.027344 
	C232.930145,311.223328 247.151062,310.261261 261.084290,307.708282 
	C291.570587,302.122406 321.070801,293.331085 348.269745,277.927399 
	C371.163086,264.962128 391.439880,249.074081 405.859467,226.636749 
	C417.861145,207.961700 423.419678,187.963745 417.989319,165.775269 
	C412.543915,143.525253 394.174286,128.556442 372.467987,125.554161 
	C374.027374,127.241356 375.101288,128.387497 376.157867,129.549393 
	C379.569885,133.301498 383.790649,136.595062 386.241028,140.896347 
	C396.269684,158.500366 394.906464,176.702713 387.565765,194.824097 
	C380.398407,212.517715 367.481110,225.901413 353.793091,238.578445 
	C349.915405,242.169754 345.356171,245.025177 341.109467,248.218079 
	C340.665192,247.950180 340.220917,247.682281 339.776642,247.414383 
	C339.776642,235.709808 339.776642,224.005219 339.776642,212.473206 
	C318.801727,212.473206 298.575317,212.473206 278.000183,212.473206 
	C278.000183,214.764496 278.000214,216.583435 278.000183,218.402374 
	C277.999878,237.567307 277.888824,256.733398 278.092010,275.896210 
	C278.132965,279.759094 276.869202,281.519043 273.212280,282.473816 
	C266.992950,284.097656 260.974060,286.544434 254.714676,287.948975 
	C236.229828,292.096771 217.704666,296.087067 199.118790,299.751160 
	C191.959641,301.162567 184.594421,301.528748 177.000259,302.408539 
	C177.000259,285.232483 176.991516,268.909882 177.003586,252.587296 
	C177.010651,243.040421 179.985977,240.011642 189.390671,240.004807 
	C209.555511,239.990143 229.720367,240.007538 249.885193,239.987396 
	C251.806305,239.985489 253.727264,239.811432 255.552460,239.721985 
	C255.552460,230.185211 255.552460,221.290756 255.552460,212.317108 
	C254.134659,212.187286 253.152328,212.019135 252.169922,212.018723 
	C218.339661,212.004211 184.508301,211.874435 150.680344,212.152847 
	C145.874039,212.192413 140.815460,213.583496 136.337097,215.456909 
	C122.952614,221.055923 117.713264,232.484863 115.182358,246.106842 
M329.552582,293.137360 
	C314.035461,298.050354 298.579742,303.174316 282.956757,307.723785 
	C279.184753,308.822174 277.887177,310.129944 277.925049,313.991241 
	C278.098022,331.624847 277.992523,349.261047 278.016235,366.896301 
	C278.018341,368.483551 278.228729,370.070526 278.337463,371.588928 
	C299.121002,371.588928 319.322144,371.588928 339.472687,371.588928 
	C339.472687,344.043610 339.472687,316.909363 339.472687,288.855652 
	C335.892883,290.431305 333.087524,291.666107 329.552582,293.137360 
z"/>
<path fill="#014189" opacity="1.000000" stroke="none" 
	d="
M115.833115,245.999573 
	C117.713264,232.484863 122.952614,221.055923 136.337097,215.456909 
	C140.815460,213.583496 145.874039,212.192413 150.680344,212.152847 
	C184.508301,211.874435 218.339661,212.004211 252.169922,212.018723 
	C253.152328,212.019135 254.134659,212.187286 255.552460,212.317108 
	C255.552460,221.290756 255.552460,230.185211 255.552460,239.721985 
	C253.727264,239.811432 251.806305,239.985489 249.885193,239.987396 
	C229.720367,240.007538 209.555511,239.990143 189.390671,240.004807 
	C179.985977,240.011642 177.010651,243.040421 177.003586,252.587296 
	C176.991516,268.909882 177.000259,285.232483 177.000259,302.408539 
	C184.594421,301.528748 191.959641,301.162567 199.118790,299.751160 
	C217.704666,296.087067 236.229828,292.096771 254.714676,287.948975 
	C260.974060,286.544434 266.992950,284.097656 273.212280,282.473816 
	C276.869202,281.519043 278.132965,279.759094 278.092010,275.896210 
	C277.888824,256.733398 277.999878,237.567307 278.000183,218.402374 
	C278.000214,216.583435 278.000183,214.764496 278.000183,212.473206 
	C298.575317,212.473206 318.801727,212.473206 339.776642,212.473206 
	C339.776642,224.005219 339.776642,235.709808 339.776642,247.414383 
	C340.220917,247.682281 340.665192,247.950180 341.109467,248.218079 
	C345.356171,245.025177 349.915405,242.169754 353.793091,238.578445 
	C367.481110,225.901413 380.398407,212.517715 387.565765,194.824097 
	C394.906464,176.702713 396.269684,158.500366 386.241028,140.896347 
	C383.790649,136.595062 379.569885,133.301498 376.157867,129.549393 
	C375.101288,128.387497 374.027374,127.241356 372.467987,125.554161 
	C394.174286,128.556442 412.543915,143.525253 417.989319,165.775269 
	C423.419678,187.963745 417.861145,207.961700 405.859467,226.636749 
	C391.439880,249.074081 371.163086,264.962128 348.269745,277.927399 
	C321.070801,293.331085 291.570587,302.122406 261.084290,307.708282 
	C247.151062,310.261261 232.930145,311.223328 218.855148,313.027344 
	C182.331024,317.708710 145.604752,317.655365 108.932610,316.782166 
	C85.084351,316.214294 61.234653,313.922760 38.107151,306.582581 
	C63.424549,306.582581 88.741943,306.582581 114.946678,306.582581 
	C114.946678,288.743774 114.946678,270.835693 114.975845,252.084305 
	C115.281052,249.493835 115.557091,247.746704 115.833115,245.999573 
z"/>
<path fill="#014189" opacity="1.000000" stroke="none" 
	d="
M522.833313,332.002747 
	C522.871155,305.977417 522.908936,279.952087 522.975952,253.083466 
	C523.281128,250.493347 523.557129,248.746521 523.833191,246.999710 
	C525.371948,225.528763 539.788513,212.013138 561.208374,212.003784 
	C593.201172,211.989807 625.193970,212.000107 657.186768,212.000092 
	C659.163879,212.000092 661.140930,212.000092 663.557983,212.000092 
	C663.557983,221.301331 663.557983,230.194855 663.557983,239.722519 
	C661.717407,239.812271 659.795654,239.985535 657.873840,239.987442 
	C637.711731,240.007507 617.549561,239.990112 597.387451,240.004837 
	C587.986694,240.011703 585.018372,243.042282 585.002502,252.587753 
	C584.990601,259.741089 585.000183,266.894470 585.000183,274.684631 
	C611.226685,274.684631 637.119812,274.684631 663.504028,274.684631 
	C663.504028,284.321808 663.504028,293.328888 663.504028,302.980591 
	C637.467163,302.980591 611.572266,302.980591 585.127319,302.980591 
	C585.127319,314.379944 584.785278,325.167633 585.271851,335.917816 
	C585.514404,341.278107 590.077942,343.962097 597.067871,343.979950 
	C617.063232,344.030975 637.058838,343.999207 657.054321,344.000000 
	C659.043579,344.000092 661.032776,344.000061 663.510620,344.000061 
	C663.510620,353.328522 663.510620,362.338074 663.510620,371.999847 
	C661.402283,371.999847 659.454407,371.999847 657.506470,371.999847 
	C625.846924,371.999908 594.185669,372.201202 562.528442,371.931549 
	C540.201660,371.741425 527.317444,361.208771 523.946655,338.018127 
	C523.572754,335.484680 523.203064,333.743713 522.833313,332.002747 
z"/>
<path fill="#014189" opacity="1.000000" stroke="none" 
	d="
M362.833313,334.002808 
	C362.888885,316.840118 363.198547,299.672241 362.849030,282.517822 
	C362.740662,277.200531 364.935699,274.664673 368.991913,271.870117 
	C391.132294,256.616669 409.140594,237.714920 419.546570,212.324768 
	C447.502380,212.324768 475.424316,212.324768 503.672394,212.324768 
	C503.672394,221.540909 503.672394,230.432678 503.672394,239.999832 
	C501.434937,239.999832 499.490295,239.999817 497.545624,239.999832 
	C477.380646,240.000076 457.215637,239.985992 437.050659,240.007141 
	C428.062408,240.016571 425.010651,243.047592 425.001648,251.862045 
	C424.994019,259.325012 425.000092,266.787964 425.000092,274.880493 
	C451.430359,274.880493 477.327209,274.880493 503.608337,274.880493 
	C503.608337,284.407562 503.608337,293.300415 503.608337,302.837677 
	C477.613678,302.837677 451.716125,302.837677 425.000000,302.837677 
	C425.000000,310.213593 424.999969,316.976562 425.000000,323.739563 
	C425.000000,326.572662 424.995819,329.405762 425.000916,332.238861 
	C425.016479,340.938660 428.029938,343.947113 437.174988,343.977448 
	C457.173126,344.043762 477.171600,343.999268 497.169952,344.000061 
	C499.148834,344.000122 501.127686,344.000061 503.552368,344.000061 
	C503.552368,353.290649 503.552368,362.185150 503.552368,371.726624 
	C501.559479,371.814941 499.472382,371.986816 497.385193,371.987976 
	C466.387756,372.005280 435.390320,371.975983 404.392914,372.008148 
	C382.664124,372.030731 368.310822,363.368652 363.952576,340.005554 
	C363.572723,337.484711 363.203003,335.743744 362.833313,334.002808 
z"/>
<path fill="#014189" opacity="1.000000" stroke="none" 
	d="
M114.833237,331.002808 
	C114.833237,327.555756 114.833237,324.108734 114.833237,320.500244 
	C135.759644,320.500244 155.909058,320.500244 177.000061,320.500244 
	C177.000061,323.741821 176.997925,327.150940 177.000458,330.560059 
	C177.008331,341.106354 179.927582,343.989746 190.678391,343.996399 
	C210.325836,344.008514 229.973297,344.000061 249.620743,344.000183 
	C251.436340,344.000183 253.251923,344.000183 255.533249,344.000183 
	C255.533249,353.244629 255.533249,362.134399 255.533249,371.722717 
	C253.626526,371.809875 251.547913,371.986389 249.469193,371.987579 
	C218.499481,372.005371 187.529480,371.919373 156.560165,372.028473 
	C136.026077,372.100800 121.874352,363.976685 116.967728,344.002380 
	C116.566254,341.842957 116.199791,340.423950 115.833328,339.004944 
	C115.856339,338.831726 115.879349,338.658539 115.923676,337.827637 
	C115.574409,335.114227 115.203819,333.058502 114.833237,331.002808 
z"/>
<path fill="#014189" opacity="1.000000" stroke="none" 
	d="
M329.917358,293.019135 
	C333.087524,291.666107 335.892883,290.431305 339.472687,288.855652 
	C339.472687,316.909363 339.472687,344.043610 339.472687,371.588928 
	C319.322144,371.588928 299.121002,371.588928 278.337463,371.588928 
	C278.228729,370.070526 278.018341,368.483551 278.016235,366.896301 
	C277.992523,349.261047 278.098022,331.624847 277.925049,313.991241 
	C277.887177,310.129944 279.184753,308.822174 282.956757,307.723785 
	C298.579742,303.174316 314.035461,298.050354 329.917358,293.019135 
z"/>
<path fill="#ED6C05" opacity="1.000000" stroke="none" 
	d="
M276.833313,175.999741 
	C276.773529,169.057205 277.459442,162.270447 280.987457,156.075623 
	C291.068451,138.374374 312.705414,133.593277 329.277435,144.956635 
	C345.290405,155.936646 348.133789,179.415726 334.785736,194.555862 
	C323.527802,207.325241 303.653229,208.454941 290.626221,199.115158 
	C284.721344,194.881592 280.699585,189.341095 278.380798,181.753738 
	C277.623718,179.454208 277.228516,177.726974 276.833313,175.999741 
z"/>
<path fill="#000000" opacity="1.000000" stroke="none" 
	d="
M114.523636,331.118347 
	C115.203819,333.058502 115.574409,335.114227 115.889191,337.567871 
	C112.975708,336.279419 110.031853,334.613739 114.523636,331.118347 
z"/>
<path fill="#000000" opacity="1.000000" stroke="none" 
	d="
M276.529175,176.108856 
	C277.228516,177.726974 277.623718,179.454208 278.066895,181.569672 
	C275.252441,180.779617 272.119751,179.690323 276.529175,176.108856 
z"/>
<path fill="#000000" opacity="1.000000" stroke="none" 
	d="
M115.507736,246.053207 
	C115.557091,247.746704 115.281052,249.493835 114.919174,251.618423 
	C111.616470,249.835327 111.476433,247.857117 115.507736,246.053207 
z"/>
<path fill="#000000" opacity="1.000000" stroke="none" 
	d="
M522.531311,332.110260 
	C523.203064,333.743713 523.572754,335.484680 523.887939,337.611572 
	C521.118225,336.676117 518.364380,335.365448 522.531311,332.110260 
z"/>
<path fill="#000000" opacity="1.000000" stroke="none" 
	d="
M362.531311,334.110321 
	C363.203003,335.743744 363.572723,337.484711 363.887909,339.611572 
	C361.118256,338.676086 358.364502,337.365387 362.531311,334.110321 
z"/>
<path fill="#000000" opacity="1.000000" stroke="none" 
	d="
M523.496460,247.075867 
	C523.557129,248.746521 523.281128,250.493347 522.919312,252.617508 
	C520.437988,250.907440 520.093750,248.934540 523.496460,247.075867 
z"/>
<path fill="#000000" opacity="1.000000" stroke="none" 
	d="
M115.558723,339.177979 
	C116.199791,340.423950 116.566254,341.842957 116.882957,343.631104 
	C113.934097,343.244415 113.285980,341.738556 115.558723,339.177979 
z"/>
</svg>