<svg id="Camada_1" data-name="Camada 1" xmlns="http://www.w3.org/2000/svg" viewBox="0 0 300 100"><defs><style>.cls-1{fill:#931004;}.cls-2{fill:#e52322;}.cls-3{fill:#770f00;}.cls-4{fill:#db0812;}.cls-5{fill:#b70e0c;}.cls-6{fill:#a51008;}.cls-7{fill:#d20a11;}.cls-8{fill:#e30613;}.cls-9{fill:#6e0e00;}.cls-10{fill:#640c00;}.cls-11{fill:#1d1d1b;}.cls-12{fill:#3a0200;}.cls-13{fill:#500800;}.cls-14{fill:#5a0a00;}.cls-15{fill:#450500;}.cls-16{fill:#2e0000;}</style></defs><title>logotipo-zimez</title><polygon class="cls-1" points="48.23 31.92 74.47 31.92 61.35 50 48.23 31.92"/><polygon class="cls-2" points="21.99 31.92 48.23 31.92 35.11 50 21.99 31.92"/><polygon class="cls-3" points="61.35 50 35.11 50 48.23 31.92 61.35 50"/><polygon class="cls-4" points="48.23 31.92 21.99 31.92 35.11 13.84 48.23 31.92"/><polygon class="cls-5" points="74.47 31.92 48.23 31.92 61.35 13.84 74.47 31.92"/><polygon class="cls-6" points="61.35 13.84 87.59 13.84 74.47 31.92 61.35 13.84"/><polygon class="cls-7" points="35.11 13.84 61.35 13.84 48.23 31.92 35.11 13.84"/><polygon class="cls-8" points="8.87 13.84 35.11 13.84 21.99 31.92 8.87 13.84"/><polygon class="cls-9" points="35.11 50 61.35 50 48.23 68.08 35.11 50"/><polygon class="cls-10" points="48.23 68.08 21.99 68.08 35.11 50 48.23 68.08"/><polygon class="cls-11" points="74.47 68.08 48.23 68.08 61.35 50 74.47 68.08"/><polygon class="cls-12" points="48.23 68.08 74.47 68.08 61.35 86.16 48.23 68.08"/><polygon class="cls-13" points="21.99 68.08 48.23 68.08 35.11 86.16 21.99 68.08"/><polygon class="cls-14" points="35.11 86.16 8.87 86.16 21.99 68.08 35.11 86.16"/><polygon class="cls-15" points="61.35 86.16 35.11 86.16 48.23 68.08 61.35 86.16"/><polygon class="cls-16" points="87.59 86.16 61.35 86.16 74.47 68.08 87.59 86.16"/><path class="cls-11" d="M106.78,56.36,126.62,30l-19.84-.17V25.86H132v3.88l-19.84,26.4,19.84.17v3.93H106.78Z"/><path class="cls-11" d="M148.87,25.86h4.32V60.24h-4.32Z"/><path class="cls-11" d="M178.56,25.86l11.59,23.29,11.48-23.29h6.06V60.24h-4.31V32l-11.81,24h-2.9l-12-24.33V60.24h-4.32V25.86Z"/><path class="cls-11" d="M226.88,25.86H248v3.72H231.2V41.11h15.86v3.66H231.2v11.7H248v3.77H226.88Z"/><path class="cls-11" d="M264.33,56.36,284.18,30l-19.85-.17V25.86h25.26v3.88l-19.85,26.4,19.85.17v3.93H264.33Z"/><path class="cls-11" d="M108,70.65a2.6,2.6,0,0,1,1.7.53,2.74,2.74,0,0,1,.89,1.38l-.89.18a2.08,2.08,0,0,0-.66-1,1.6,1.6,0,0,0-1-.36,1.67,1.67,0,0,0-1.37.69,3,3,0,0,0-.55,1.92,3.5,3.5,0,0,0,.49,2,1.59,1.59,0,0,0,1.43.75,1.76,1.76,0,0,0,1.24-.42,1.38,1.38,0,0,0,.46-1.09h.89a2,2,0,0,1-.71,1.64,2.86,2.86,0,0,1-1.94.61,2.43,2.43,0,0,1-2-.94A3.89,3.89,0,0,1,105.2,74a3.56,3.56,0,0,1,.79-2.47A2.57,2.57,0,0,1,108,70.65Z"/><path class="cls-11" d="M116.89,70.65a2.68,2.68,0,0,1,2.07.88,3.66,3.66,0,0,1,.79,2.55,3.69,3.69,0,0,1-.78,2.54,2.71,2.71,0,0,1-2.08.86,2.64,2.64,0,0,1-2.07-.87,4.53,4.53,0,0,1,0-5.08A2.65,2.65,0,0,1,116.89,70.65Zm0,.75a1.76,1.76,0,0,0-1.46.69,3.25,3.25,0,0,0-.53,2,3.13,3.13,0,0,0,.53,2,1.91,1.91,0,0,0,2.92,0,3.07,3.07,0,0,0,.54-2,3.19,3.19,0,0,0-.54-2A1.75,1.75,0,0,0,116.89,71.4Z"/><path class="cls-11" d="M124.71,70.77l3.27,5.3v-5.3h.83v6.6h-.92L124.57,72v5.37h-.84v-6.6Z"/><path class="cls-11" d="M136.86,72.37c-.12-.64-.59-1-1.42-1a1.61,1.61,0,0,0-1,.29.87.87,0,0,0-.35.69.79.79,0,0,0,.22.61,1.85,1.85,0,0,0,.71.37l1.37.47a2.85,2.85,0,0,1,1.12.66,1.6,1.6,0,0,1,.41,1.18,1.55,1.55,0,0,1-.65,1.28,2.67,2.67,0,0,1-1.74.52,2.76,2.76,0,0,1-1.78-.55,1.89,1.89,0,0,1-.72-1.55h.81a1.18,1.18,0,0,0,.45,1,1.92,1.92,0,0,0,1.18.35,1.85,1.85,0,0,0,1.13-.32,1,1,0,0,0,.42-.76.93.93,0,0,0-.25-.69,2.34,2.34,0,0,0-.76-.42l-1.17-.43a3.41,3.41,0,0,1-1.24-.65,1.4,1.4,0,0,1-.42-1.1,1.53,1.53,0,0,1,.59-1.22,2.54,2.54,0,0,1,1.65-.49,2.5,2.5,0,0,1,1.62.47,1.8,1.8,0,0,1,.64,1.25Z"/><path class="cls-11" d="M142.78,70.77V75a1.71,1.71,0,0,0,.46,1.34,2,2,0,0,0,2.44,0,1.75,1.75,0,0,0,.46-1.34V70.77H147V75a2.4,2.4,0,0,1-.68,1.87,3,3,0,0,1-3.65,0A2.43,2.43,0,0,1,142,75V70.77Z"/><path class="cls-11" d="M152.2,76.64h2.93v.73h-3.76v-6.6h.83Z"/><path class="cls-11" d="M157.18,70.77h5.13v.71h-2.15v5.89h-.83V71.48h-2.15Z"/><path class="cls-11" d="M168.17,70.65a2.68,2.68,0,0,1,2.07.88,4.49,4.49,0,0,1,0,5.09,2.91,2.91,0,0,1-4.14,0,4.53,4.53,0,0,1,0-5.08A2.65,2.65,0,0,1,168.17,70.65Zm0,.75a1.75,1.75,0,0,0-1.46.69,3.19,3.19,0,0,0-.53,2,3.07,3.07,0,0,0,.53,2,1.91,1.91,0,0,0,2.92,0,3.07,3.07,0,0,0,.54-2,3.19,3.19,0,0,0-.54-2A1.76,1.76,0,0,0,168.17,71.4Z"/><path class="cls-11" d="M179.62,72.66a2,2,0,0,1-.44,1.32,2.12,2.12,0,0,1-1.28.65l1.89,2.74h-1.07L177,74.67h-1.16v2.7H175v-6.6h2.29a2.52,2.52,0,0,1,1.71.53A1.77,1.77,0,0,1,179.62,72.66Zm-2.36,1.43a1.6,1.6,0,0,0,1.13-.36,1.27,1.27,0,0,0,.38-1,1.28,1.28,0,0,0-.37-1,1.54,1.54,0,0,0-1.08-.35h-1.47v2.61Z"/><path class="cls-11" d="M183.86,70.77h.83v6.6h-.83Z"/><path class="cls-11" d="M190.69,70.77h1l2.21,6.6h-.86l-.56-1.68h-2.63l-.56,1.68h-.87ZM190.08,75h2.2l-1.1-3.25Z"/><path class="cls-11" d="M202.55,70.77h4.06v.71h-3.23V73.7h3v.7h-3v2.24h3.23v.73h-4.06Z"/><path class="cls-11" d="M212.05,70.77l2.23,4.47,2.2-4.47h1.16v6.6h-.83V71.94l-2.26,4.6H214l-2.29-4.67v5.5h-.83v-6.6Z"/><path class="cls-11" d="M225.94,71.32a2,2,0,0,1,.57,1.48,1.94,1.94,0,0,1-.57,1.48,2.32,2.32,0,0,1-1.66.54H223v2.55h-.83v-6.6h2.13A2.28,2.28,0,0,1,225.94,71.32Zm-1.66,2.78a1.41,1.41,0,0,0,1-.34,1.25,1.25,0,0,0,.35-1,1.33,1.33,0,0,0-.35-1,1.37,1.37,0,0,0-1-.36H223V74.1Z"/><path class="cls-11" d="M235,72.66a2,2,0,0,1-.43,1.32,2.15,2.15,0,0,1-1.28.65l1.88,2.74h-1.07l-1.71-2.7h-1.15v2.7h-.83v-6.6h2.3a2.47,2.47,0,0,1,1.7.53A1.74,1.74,0,0,1,235,72.66Zm-2.35,1.43a1.57,1.57,0,0,0,1.12-.36,1.24,1.24,0,0,0,.39-1,1.25,1.25,0,0,0-.38-1,1.51,1.51,0,0,0-1.07-.35h-1.47v2.61Z"/><path class="cls-11" d="M239.22,70.77h4.06v.71h-3.23V73.7h3v.7h-3v2.24h3.23v.73h-4.06Z"/><path class="cls-11" d="M251.05,72.37c-.12-.64-.59-1-1.42-1a1.56,1.56,0,0,0-1,.29.85.85,0,0,0-.36.69.79.79,0,0,0,.22.61,1.93,1.93,0,0,0,.71.37l1.38.47a2.73,2.73,0,0,1,1.11.66,1.61,1.61,0,0,1,.42,1.18,1.58,1.58,0,0,1-.65,1.28,2.71,2.71,0,0,1-1.74.52,2.77,2.77,0,0,1-1.79-.55,1.92,1.92,0,0,1-.72-1.55H248a1.18,1.18,0,0,0,.45,1,1.92,1.92,0,0,0,1.18.35,1.86,1.86,0,0,0,1.14-.32,1,1,0,0,0,.42-.76.94.94,0,0,0-.26-.69,2.23,2.23,0,0,0-.76-.42L249,74.11a3.33,3.33,0,0,1-1.24-.65,1.4,1.4,0,0,1-.42-1.1,1.5,1.5,0,0,1,.59-1.22,2.53,2.53,0,0,1,1.64-.49,2.46,2.46,0,0,1,1.62.47,1.81,1.81,0,0,1,.65,1.25Z"/><path class="cls-11" d="M257.77,70.77h1l2.21,6.6h-.86l-.57-1.68h-2.62l-.56,1.68h-.87ZM257.16,75h2.19l-1.09-3.25Z"/><path class="cls-11" d="M269.33,72.66a2,2,0,0,1-.44,1.32,2.15,2.15,0,0,1-1.28.65l1.88,2.74h-1.06l-1.71-2.7h-1.16v2.7h-.83v-6.6H267a2.47,2.47,0,0,1,1.7.53A1.75,1.75,0,0,1,269.33,72.66ZM267,74.09a1.57,1.57,0,0,0,1.12-.36,1.24,1.24,0,0,0,.39-1,1.28,1.28,0,0,0-.37-1,1.54,1.54,0,0,0-1.08-.35h-1.47v2.61Z"/><path class="cls-11" d="M273.57,70.77h.83v6.6h-.83Z"/><path class="cls-11" d="M280.4,70.77h1l2.21,6.6h-.86l-.57-1.68h-2.62L279,77.37h-.87ZM279.79,75H282l-1.09-3.25Z"/><path class="cls-11" d="M288.19,76.64h2.94v.73h-3.77v-6.6h.83Z"/></svg>